<?xml version="1.0" encoding="UTF-8" standalone="no"?>
<!-- Created with Inkscape (http://www.inkscape.org/) -->

<svg
   xmlns:dc="http://purl.org/dc/elements/1.1/"
   xmlns:cc="http://creativecommons.org/ns#"
   xmlns:rdf="http://www.w3.org/1999/02/22-rdf-syntax-ns#"
   xmlns:svg="http://www.w3.org/2000/svg"
   xmlns="http://www.w3.org/2000/svg"
   xmlns:sodipodi="http://sodipodi.sourceforge.net/DTD/sodipodi-0.dtd"
   xmlns:inkscape="http://www.inkscape.org/namespaces/inkscape"
   width="210mm"
   height="297mm"
   viewBox="0 0 744.09448819 1052.3622047"
   id="svg2"
   version="1.1"
   inkscape:version="0.91 r13725"
   sodipodi:docname="patch_alg_3.svg">
  <sodipodi:namedview
     id="base"
     pagecolor="#ffffff"
     bordercolor="#666666"
     borderopacity="1.0"
     inkscape:pageopacity="0.0"
     inkscape:pageshadow="2"
     inkscape:zoom="1.979899"
     inkscape:cx="163.09875"
     inkscape:cy="710.05807"
     inkscape:document-units="px"
     inkscape:current-layer="layer4"
     showgrid="false"
     inkscape:window-width="1863"
     inkscape:window-height="1059"
     inkscape:window-x="57"
     inkscape:window-y="21"
     inkscape:window-maximized="1"
     inkscape:snap-midpoints="true" />
  <defs
     id="defs4" />
  <metadata
     id="metadata7">
    <rdf:RDF>
      <cc:Work
         rdf:about="">
        <dc:format>image/svg+xml</dc:format>
        <dc:type
           rdf:resource="http://purl.org/dc/dcmitype/StillImage" />
        <dc:title></dc:title>
      </cc:Work>
    </rdf:RDF>
  </metadata>
  <g
     style="display:none;opacity:1"
     inkscape:label="raff petit pach"
     id="g4364"
     inkscape:groupmode="layer">
    <g
       transform="translate(0,5.0000001e-6)"
       id="g4366">
      <path
         style="fill:none;fill-rule:evenodd;stroke:#c70000;stroke-width:1;stroke-linecap:butt;stroke-linejoin:miter;stroke-miterlimit:4;stroke-dasharray:1, 1;stroke-dashoffset:0;stroke-opacity:1"
         d="m 306.20249,407.00099 -22.22335,20.45559 42.30013,6.9448 z"
         id="path4368"
         inkscape:connector-curvature="0" />
      <path
         style="fill:none;fill-rule:evenodd;stroke:#c80000;stroke-width:1;stroke-linecap:butt;stroke-linejoin:miter;stroke-miterlimit:4;stroke-dasharray:1, 1;stroke-dashoffset:0;stroke-opacity:1"
         d="m 306.20249,407.00099 23.10724,-19.31916 -42.93148,-8.08122 -45.07806,-7.57615 -45.3306,-7.95494 22.60216,28.03172 -22.60216,19.82425 44.44672,8.08122 -21.84456,-27.90547 22.72844,-20.07678 21.33947,-20.20305 23.23351,27.7792 0,0.50508"
         id="path4370"
         inkscape:connector-curvature="0" />
      <path
         style="fill:none;fill-rule:evenodd;stroke:#c80000;stroke-width:1;stroke-linecap:butt;stroke-linejoin:miter;stroke-miterlimit:4;stroke-dasharray:1, 1;stroke-dashoffset:0;stroke-opacity:1"
         d="m 240.92138,420.00671 43.05776,7.44987 -24.36994,19.82425 z"
         id="path4372"
         inkscape:connector-curvature="0" />
      <path
         style="fill:none;fill-rule:evenodd;stroke:#c70000;stroke-width:1;stroke-linecap:butt;stroke-linejoin:miter;stroke-miterlimit:4;stroke-dasharray:1, 1;stroke-dashoffset:0;stroke-opacity:1"
         d="m 285.87317,379.85315 20.32932,27.14784 0,0 0,0 0,0"
         id="path4374"
         inkscape:connector-curvature="0" />
      <path
         style="fill:none;fill-rule:evenodd;stroke:#c90000;stroke-width:1;stroke-linecap:butt;stroke-linejoin:miter;stroke-miterlimit:4;stroke-dasharray:1, 1;stroke-dashoffset:0;stroke-opacity:1"
         d="m 326.27927,434.40138 19.1929,26.01143 21.71828,-21.2132 40.91118,-1.51523 -19.69797,-27.52665 20.07678,-30.80966 39.52221,-4.29315 -21.2132,-26.76904 2.02031,-32.32488 -37.50192,6.31345 -37.24938,-25.75889 -0.50507,-32.57742 -37.37564,7.57615 -45.96194,-9.09138 -1.26269,29.7995 -47.72971,21.59202 -44.95179,-8.96511 0,30.30458 -24.74874,21.2132 44.44671,7.70242 -20.70812,-29.92578 45.96194,-20.32931 45.20432,8.58629 2.52539,-30.17831 47.7297,-20.70812 37.37564,25.00127 -2.65164,30.05204 39.90102,-4.29315 35.48161,25.50635 -18.30901,31.56727 -39.90103,3.78808 19.82425,27.02158 -21.21321,29.04188 z"
         id="path4376"
         inkscape:connector-curvature="0" />
      <path
         style="fill:none;fill-rule:evenodd;stroke:#c70000;stroke-width:1;stroke-linecap:butt;stroke-linejoin:miter;stroke-miterlimit:4;stroke-dasharray:1, 1;stroke-dashoffset:0;stroke-opacity:1"
         d="m 263.64981,351.31634 2.77792,-28.91562 44.69925,9.21764 40.27984,-5.05076 -2.90419,29.29442 -19.1929,31.31473 39.26968,-4.0406 -20.07678,-26.76905 -36.36549,-24.74874 z"
         id="path4378"
         inkscape:connector-curvature="0" />
    </g>
    <path
       style="fill:#b7c8b7;fill-opacity:1;fill-rule:evenodd;stroke:#000000;stroke-width:1px;stroke-linecap:butt;stroke-linejoin:miter;stroke-opacity:1"
       d="m 127.7843,326.06252 95.96449,-42.4264 90.40865,17.17259 -5.55584,60.60915 -89.90357,79.29698 -90.91373,-112.63201 0,0"
       id="path4380"
       inkscape:connector-curvature="0" />
    <path
       style="fill:#000000;fill-opacity:1;stroke:none;stroke-width:1;stroke-miterlimit:4;stroke-dasharray:1, 1;stroke-dashoffset:0;stroke-opacity:1"
       id="path4382"
       sodipodi:type="arc"
       sodipodi:cx="218.69804"
       sodipodi:cy="344.75034"
       sodipodi:rx="4.5456862"
       sodipodi:ry="4.0406103"
       sodipodi:start="5.4977871"
       sodipodi:end="5.3360824"
       sodipodi:open="true"
       d="m 221.91233,341.89319 a 4.5456862,4.0406103 0 0 1 0.12728,5.59648 4.5456862,4.0406103 0 0 1 -6.28575,0.33923 4.5456862,4.0406103 0 0 1 -0.63536,-5.56906 4.5456862,4.0406103 0 0 1 6.23439,-0.78938" />
    <text
       xml:space="preserve"
       style="font-style:normal;font-variant:normal;font-weight:normal;font-stretch:normal;font-size:17.5px;line-height:125%;font-family:'Times New Roman';-inkscape-font-specification:'Times New Roman, Normal';text-align:start;letter-spacing:0px;word-spacing:0px;writing-mode:lr-tb;text-anchor:start;fill:#000000;fill-opacity:1;stroke:none;stroke-width:1px;stroke-linecap:butt;stroke-linejoin:miter;stroke-opacity:1"
       x="206.07112"
       y="338.68945"
       id="text4384"
       sodipodi:linespacing="125%"><tspan
         sodipodi:role="line"
         id="tspan4386"
         x="206.07112"
         y="338.68945">a</tspan></text>
  </g>
  <g
     inkscape:groupmode="layer"
     id="layer3"
     inkscape:label="raff rouge"
     style="display:inline">
    <g
       id="g4346"
       transform="translate(0,5.0000001e-6)">
      <path
         inkscape:connector-curvature="0"
         id="path4290"
         d="m 306.20249,407.00099 -22.22335,20.45559 42.30013,6.9448 z"
         style="fill:none;fill-rule:evenodd;stroke:#c70000;stroke-width:1;stroke-linecap:butt;stroke-linejoin:miter;stroke-miterlimit:4;stroke-dasharray:1, 1;stroke-dashoffset:0;stroke-opacity:1" />
      <path
         inkscape:connector-curvature="0"
         id="path4292"
         d="m 306.20249,407.00099 23.10724,-19.31916 -42.93148,-8.08122 -45.07806,-7.57615 -45.3306,-7.95494 22.60216,28.03172 -22.60216,19.82425 44.44672,8.08122 -21.84456,-27.90547 22.72844,-20.07678 21.33947,-20.20305 23.23351,27.7792 0,0.50508"
         style="fill:none;fill-rule:evenodd;stroke:#c80000;stroke-width:1;stroke-linecap:butt;stroke-linejoin:miter;stroke-miterlimit:4;stroke-dasharray:1, 1;stroke-dashoffset:0;stroke-opacity:1" />
      <path
         inkscape:connector-curvature="0"
         id="path4294"
         d="m 240.92138,420.00671 43.05776,7.44987 -24.36994,19.82425 z"
         style="fill:none;fill-rule:evenodd;stroke:#c80000;stroke-width:1;stroke-linecap:butt;stroke-linejoin:miter;stroke-miterlimit:4;stroke-dasharray:1, 1;stroke-dashoffset:0;stroke-opacity:1" />
      <path
         inkscape:connector-curvature="0"
         id="path4296"
         d="m 285.87317,379.85315 20.32932,27.14784 0,0 0,0 0,0"
         style="fill:none;fill-rule:evenodd;stroke:#c70000;stroke-width:1;stroke-linecap:butt;stroke-linejoin:miter;stroke-miterlimit:4;stroke-dasharray:1, 1;stroke-dashoffset:0;stroke-opacity:1" />
      <path
         inkscape:connector-curvature="0"
         id="path4300"
         d="m 326.27927,434.40138 19.1929,26.01143 21.71828,-21.2132 40.91118,-1.51523 -19.69797,-27.52665 20.07678,-30.80966 39.52221,-4.29315 -21.2132,-26.76904 2.02031,-32.32488 -37.50192,6.31345 -37.24938,-25.75889 -0.50507,-32.57742 -37.37564,7.57615 -45.96194,-9.09138 -1.26269,29.7995 -47.72971,21.59202 -44.95179,-8.96511 0,30.30458 -24.74874,21.2132 44.44671,7.70242 -20.70812,-29.92578 45.96194,-20.32931 45.20432,8.58629 2.52539,-30.17831 47.7297,-20.70812 37.37564,25.00127 -2.65164,30.05204 39.90102,-4.29315 35.48161,25.50635 -18.30901,31.56727 -39.90103,3.78808 19.82425,27.02158 -21.21321,29.04188 z"
         style="fill:none;fill-rule:evenodd;stroke:#c90000;stroke-width:1;stroke-linecap:butt;stroke-linejoin:miter;stroke-miterlimit:4;stroke-dasharray:1, 1;stroke-dashoffset:0;stroke-opacity:1" />
      <path
         inkscape:connector-curvature="0"
         id="path4302"
         d="m 263.64981,351.31634 2.77792,-28.91562 44.69925,9.21764 40.27984,-5.05076 -2.90419,29.29442 -19.1929,31.31473 39.26968,-4.0406 -20.07678,-26.76905 -36.36549,-24.74874 z"
         style="fill:none;fill-rule:evenodd;stroke:#c70000;stroke-width:1;stroke-linecap:butt;stroke-linejoin:miter;stroke-miterlimit:4;stroke-dasharray:1, 1;stroke-dashoffset:0;stroke-opacity:1" />
    </g>
  </g>
  <g
     inkscape:groupmode="layer"
     id="layer5"
     inkscape:label="raff gros patch"
     style="display:none">
    <path
       style="fill:#b7b7c8;fill-opacity:1;fill-rule:evenodd;stroke:none;stroke-width:1px;stroke-linecap:butt;stroke-linejoin:miter;stroke-opacity:1"
       d="M 128.79445,327.07268 319.71328,239.69448 466.94302,344.24527 389.91888,467.48388 218.69803,440.71484 Z"
       id="path4359"
       inkscape:connector-curvature="0" />
  </g>
  <g
     inkscape:groupmode="layer"
     id="layer2"
     inkscape:label="origine"
     style="display:inline">
    <path
       style="fill:none;fill-rule:evenodd;stroke:#000000;stroke-width:1px;stroke-linecap:butt;stroke-linejoin:miter;stroke-opacity:1"
       d="M 127.27922,327.07268 320.21836,240.19956 467.70063,344.24527 388.90873,468.49403 219.2031,441.21991 Z"
       id="path4136"
       inkscape:connector-curvature="0" />
    <path
       style="fill:none;fill-rule:evenodd;stroke:#000000;stroke-width:1px;stroke-linecap:butt;stroke-linejoin:miter;stroke-opacity:1"
       d="m 309.10668,361.41786 10.10152,-121.2183 1.01016,-1.01015 1.01015,1.01015"
       id="path4138"
       inkscape:connector-curvature="0" />
    <path
       style="fill:none;fill-rule:evenodd;stroke:#010000;stroke-width:1px;stroke-linecap:butt;stroke-linejoin:miter;stroke-opacity:1"
       d="m 219.2031,440.20976 89.3985,-80.30713 79.80205,108.08633"
       id="path4140"
       inkscape:connector-curvature="0" />
    <path
       style="fill:none;fill-rule:evenodd;stroke:#000000;stroke-width:1px;stroke-linecap:butt;stroke-linejoin:miter;stroke-opacity:1"
       d="m 127.27922,327.07268 182.83761,33.84011 157.07872,-17.1726 -0.50507,1.01016"
       id="path4144"
       inkscape:connector-curvature="0" />
    <path
       style="fill:none;fill-opacity:1;stroke:#000000;stroke-opacity:0"
       id="path4148"
       sodipodi:type="arc"
       sodipodi:cx="101.52033"
       sodipodi:cy="213.17798"
       sodipodi:rx="7.0710678"
       sodipodi:ry="6.8185296"
       sodipodi:start="5.4977871"
       sodipodi:end="5.3360824"
       sodipodi:open="true"
       d="m 106.52033,208.35655 a 7.0710678,6.8185296 0 0 1 0.19799,9.44406 7.0710678,6.8185296 0 0 1 -9.777832,0.57245 7.0710678,6.8185296 0 0 1 -0.988337,-9.39779 7.0710678,6.8185296 0 0 1 9.697949,-1.33208" />
    <path
       style="fill:none;fill-opacity:1;stroke:#000000;stroke-opacity:0"
       id="path4150"
       sodipodi:type="arc"
       sodipodi:cx="118.69292"
       sodipodi:cy="229.34042"
       sodipodi:rx="13.131983"
       sodipodi:ry="12.879445"
       sodipodi:start="5.4977871"
       sodipodi:end="5.3360824"
       sodipodi:open="true"
       d="m 127.97863,220.23328 a 13.131983,12.879445 0 0 1 0.3677,17.83878 13.131983,12.879445 0 0 1 -18.15884,1.08129 13.131983,12.879445 0 0 1 -1.83548,-17.75138 13.131983,12.879445 0 0 1 18.01047,-2.51614" />
    <path
       style="fill:none;fill-opacity:1;stroke:#000000;stroke-opacity:0"
       id="path4165"
       sodipodi:type="arc"
       sodipodi:cx="404.5661"
       sodipodi:cy="222.77443"
       sodipodi:rx="5.0507627"
       sodipodi:ry="7.323606"
       sodipodi:start="5.4977871"
       sodipodi:end="5.3360824"
       sodipodi:open="true"
       d="m 408.13753,217.59586 a 5.0507627,7.323606 0 0 1 0.14142,10.14362 5.0507627,7.323606 0 0 1 -6.98417,0.61485 5.0507627,7.323606 0 0 1 -0.70595,-10.09392 5.0507627,7.323606 0 0 1 6.9271,-1.43075" />
    <path
       style="fill:#000000;fill-opacity:1;stroke:#000000;stroke-width:0.18128888;stroke-opacity:0"
       id="path3370"
       sodipodi:type="arc"
       sodipodi:cx="388.15079"
       sodipodi:cy="468.2406"
       sodipodi:rx="4.1955414"
       sodipodi:ry="4.7005835"
       sodipodi:start="5.4977871"
       sodipodi:end="5.3360824"
       sodipodi:open="true"
       d="m 391.11748,464.91679 a 4.1955414,4.7005835 0 0 1 0.11748,6.51058 4.1955414,4.7005835 0 0 1 -5.80157,0.39463 4.1955414,4.7005835 0 0 1 -0.58642,-6.47868 4.1955414,4.7005835 0 0 1 5.75417,-0.91831" />
    <path
       d="m 222.42202,435.62238 a 4.1955414,4.7005835 0 0 1 0.11747,6.51058 4.1955414,4.7005835 0 0 1 -5.80157,0.39464 4.1955414,4.7005835 0 0 1 -0.58642,-6.47868 4.1955414,4.7005835 0 0 1 5.75417,-0.91831"
       sodipodi:open="true"
       sodipodi:end="5.3360824"
       sodipodi:start="5.4977871"
       sodipodi:ry="4.7005835"
       sodipodi:rx="4.1955414"
       sodipodi:cy="438.9462"
       sodipodi:cx="219.45532"
       sodipodi:type="arc"
       id="path3372"
       style="fill:#000000;fill-opacity:1;stroke:#000000;stroke-width:0.18128888;stroke-opacity:0" />
    <path
       style="fill:#000000;fill-opacity:1;stroke:#000000;stroke-width:0.18128888;stroke-opacity:0"
       id="path3374"
       sodipodi:type="arc"
       sodipodi:cx="466.43762"
       sodipodi:cy="343.48676"
       sodipodi:rx="4.1955414"
       sodipodi:ry="4.7005835"
       sodipodi:start="5.4977871"
       sodipodi:end="5.3360824"
       sodipodi:open="true"
       d="m 469.40432,340.16294 a 4.1955414,4.7005835 0 0 1 0.11747,6.51058 4.1955414,4.7005835 0 0 1 -5.80157,0.39464 4.1955414,4.7005835 0 0 1 -0.58642,-6.47868 4.1955414,4.7005835 0 0 1 5.75417,-0.91831" />
    <path
       d="m 132.01337,325.01069 a 4.1955414,4.7005835 0 0 1 0.11748,6.51058 4.1955414,4.7005835 0 0 1 -5.80157,0.39464 4.1955414,4.7005835 0 0 1 -0.58642,-6.47869 4.1955414,4.7005835 0 0 1 5.75417,-0.91831"
       sodipodi:open="true"
       sodipodi:end="5.3360824"
       sodipodi:start="5.4977871"
       sodipodi:ry="4.7005835"
       sodipodi:rx="4.1955414"
       sodipodi:cy="328.3345"
       sodipodi:cx="129.04668"
       sodipodi:type="arc"
       id="path3376"
       style="fill:#000000;fill-opacity:1;stroke:#000000;stroke-width:0.18128888;stroke-opacity:0" />
    <path
       style="fill:#000000;fill-opacity:1;stroke:#000000;stroke-width:0.18128888;stroke-opacity:0"
       id="path3378"
       sodipodi:type="arc"
       sodipodi:cx="318.95535"
       sodipodi:cy="241.46136"
       sodipodi:rx="4.1955414"
       sodipodi:ry="4.7005835"
       sodipodi:start="5.4977871"
       sodipodi:end="5.3360824"
       sodipodi:open="true"
       d="m 321.92205,238.13755 a 4.1955414,4.7005835 0 0 1 0.11747,6.51058 4.1955414,4.7005835 0 0 1 -5.80157,0.39464 4.1955414,4.7005835 0 0 1 -0.58642,-6.47869 4.1955414,4.7005835 0 0 1 5.75417,-0.91831" />
    <path
       d="m 310.81038,357.33555 a 4.1955414,4.7005835 0 0 1 0.11748,6.51058 4.1955414,4.7005835 0 0 1 -5.80157,0.39463 4.1955414,4.7005835 0 0 1 -0.58642,-6.47868 4.1955414,4.7005835 0 0 1 5.75417,-0.91831"
       sodipodi:open="true"
       sodipodi:end="5.3360824"
       sodipodi:start="5.4977871"
       sodipodi:ry="4.7005835"
       sodipodi:rx="4.1955414"
       sodipodi:cy="360.65936"
       sodipodi:cx="307.84369"
       sodipodi:type="arc"
       id="path3380"
       style="fill:#000000;fill-opacity:1;stroke:#000000;stroke-width:0.18128888;stroke-opacity:0" />
    <g
       transform="matrix(0.37765655,0,0,0.37765655,165.03215,344.41738)"
       id="g3422">
      <g
         style="font-style:normal;font-variant:normal;font-weight:normal;font-stretch:normal;letter-spacing:normal;word-spacing:normal;text-anchor:start;fill:none;fill-opacity:1;fill-rule:evenodd;stroke:#000000;stroke-linecap:butt;stroke-linejoin:miter;stroke-miterlimit:10.43299961;stroke-dasharray:none;stroke-dashoffset:0;stroke-opacity:1"
         id="content"
         transform="matrix(1.0629921,0,0,-1.0629921,-186.02362,789.27165)"
         xml:space="preserve"
         stroke-miterlimit="10.433"
         font-style="normal"
         font-variant="normal"
         font-weight="normal"
         font-stretch="normal"
         font-size-adjust="none"
         letter-spacing="normal"
         word-spacing="normal"><path
           style="fill:#000000;stroke-width:0"
           inkscape:connector-curvature="0"
           d="m 482.47,436.59 0.04,0.15 0.04,0.14 0.03,0.14 0.04,0.13 0.03,0.12 0.04,0.12 0.04,0.11 0.04,0.11 0.04,0.1 0.04,0.09 0.05,0.09 0.05,0.08 0.06,0.08 0.06,0.07 0.07,0.07 0.08,0.06 0.08,0.06 0.09,0.05 0.09,0.05 0.11,0.04 0.11,0.04 0.13,0.04 0.13,0.03 0.07,0.01 0.08,0.02 0.07,0.01 0.08,0.01 0.08,0.01 0.09,0.01 0.09,0.01 0.09,0.01 0.09,0.01 0.1,0 0.1,0.01 0.11,0 0.1,0.01 0.11,0 0.12,0 0.12,0 0.12,0 0.13,0 c 0.79,0 1.34,0 1.34,0.96 0,0.43 -0.3,0.59 -0.69,0.59 -1.25,0 -4.28,-0.16 -5.53,-0.16 -1.64,0 -5.69,0.16 -7.33,0.16 -0.45,0 -1.04,0 -1.04,-1 0,-0.55 0.4,-0.55 1.7,-0.55 1.14,0 1.64,0 2.88,-0.09 1.2,-0.16 1.54,-0.31 1.54,-1 0,-0.3 -0.09,-0.66 -0.19,-1.05 l -5.73,-22.87 c -1.2,-4.83 -4.58,-7.47 -7.17,-7.47 -1.3,0 -3.94,0.5 -4.74,3.09 0.14,-0.04 0.5,-0.04 0.6,-0.04 1.94,0 3.23,1.68 3.23,3.18 0,1.6 -1.34,2.08 -2.19,2.08 -0.89,0 -3.34,-0.59 -3.34,-3.98 0,-3.08 2.64,-5.42 6.58,-5.42 4.59,0 9.76,3.28 11.01,8.21 z"
           id="path3425" /><path
           style="fill:#000000;stroke-width:0"
           inkscape:connector-curvature="0"
           d="m 536.07,422.5 0.14,0 0.14,0 0.15,0 0.07,0.01 0.07,0 0.08,0.01 0.07,0.01 0.07,0.01 0.07,0.01 0.07,0.01 0.06,0.02 0.07,0.02 0.06,0.02 0.06,0.02 0.06,0.03 0.05,0.03 0.06,0.04 0.05,0.03 0.04,0.05 0.05,0.04 0.04,0.05 0.02,0.03 0.01,0.03 0.02,0.02 0.02,0.03 0.01,0.03 0.01,0.04 0.01,0.03 0.02,0.04 0.01,0.03 0,0.04 0.01,0.04 0.01,0.04 0,0.04 0.01,0.04 0,0.04 0,0.05 c 0,1 -0.96,1 -1.64,1 l -29.85,0 c -0.7,0 -1.64,0 -1.64,-1 0,-0.98 0.94,-0.98 1.69,-0.98 z"
           id="path3427" /><path
           style="fill:#000000;stroke-width:0"
           inkscape:connector-curvature="0"
           d="m 536.12,412.82 0.06,0 0.07,0 0.14,0.01 0.13,0 0.07,0 0.07,0.01 0.07,0.01 0.07,0 0.07,0.01 0.07,0.02 0.07,0.01 0.06,0.02 0.06,0.02 0.07,0.02 0.06,0.02 0.05,0.03 0.06,0.03 0.05,0.04 0.05,0.04 0.05,0.04 0.04,0.05 0.02,0.02 0.02,0.03 0.02,0.02 0.01,0.03 0.02,0.03 0.02,0.03 0.01,0.03 0.01,0.03 0.01,0.04 0.02,0.03 0.01,0.04 0,0.04 0.01,0.04 0.01,0.04 0,0.04 0.01,0.04 0,0.05 0,0.04 c 0,1 -0.96,1 -1.69,1 l -29.75,0 c -0.75,0 -1.69,0 -1.69,-1 0,-1 0.94,-1 1.64,-1 z"
           id="path3429" /><path
           style="fill:#000000;stroke-width:0"
           inkscape:connector-curvature="0"
           d="m 568.85,423.73 0.38,0.13 0.37,0.15 0.36,0.15 0.36,0.17 0.35,0.18 0.34,0.19 0.33,0.2 0.32,0.22 0.31,0.22 0.3,0.23 0.29,0.24 0.28,0.25 0.28,0.26 0.26,0.27 0.24,0.27 0.24,0.29 0.23,0.29 0.21,0.3 0.2,0.3 0.19,0.32 0.17,0.32 0.16,0.32 0.15,0.33 0.13,0.34 0.12,0.34 0.1,0.34 0.09,0.35 0.07,0.36 0.06,0.36 0.04,0.36 0.03,0.36 0.01,0.37 c 0,4.08 -4.39,6.88 -9.17,6.88 -5.04,0 -8.82,-3 -8.82,-6.78 0,-1.65 1.1,-2.6 2.55,-2.6 1.53,0 2.53,1.1 2.53,2.55 0,2.48 -2.34,2.48 -3.08,2.48 1.53,2.44 4.83,3.1 6.63,3.1 2.03,0 4.78,-1.1 4.78,-5.58 0,-0.61 -0.11,-3.49 -1.41,-5.69 -1.48,-2.39 -3.18,-2.53 -4.42,-2.59 -0.41,-0.05 -1.59,-0.14 -1.95,-0.14 -0.39,-0.05 -0.75,-0.1 -0.75,-0.6 0,-0.54 0.36,-0.54 1.2,-0.54 l 2.19,0 c 4.09,0 5.93,-3.39 5.93,-8.29 0,-6.76 -3.43,-8.21 -5.63,-8.21 -2.15,0 -5.88,0.84 -7.62,3.78 1.74,-0.24 3.29,0.86 3.29,2.75 0,1.79 -1.35,2.78 -2.8,2.78 -1.19,0 -2.78,-0.69 -2.78,-2.89 0,-4.53 4.62,-7.81 10.06,-7.81 6.08,0 10.61,4.53 10.61,9.6 0,4.1 -3.14,7.97 -8.31,9.02 z"
           id="path3431" /></g>    </g>
    <g
       id="g3423"
       transform="matrix(0.52866132,0,0,0.52866132,63.058549,147.59647)">
      <g
         word-spacing="normal"
         letter-spacing="normal"
         font-size-adjust="none"
         font-stretch="normal"
         font-weight="normal"
         font-variant="normal"
         font-style="normal"
         stroke-miterlimit="10.433"
         xml:space="preserve"
         transform="matrix(1.0629921,0,0,-1.0629921,-186.02362,789.27165)"
         id="g3425"
         style="font-style:normal;font-variant:normal;font-weight:normal;font-stretch:normal;letter-spacing:normal;word-spacing:normal;text-anchor:start;fill:none;fill-opacity:1;fill-rule:evenodd;stroke:#000000;stroke-linecap:butt;stroke-linejoin:miter;stroke-miterlimit:10.43299961;stroke-dasharray:none;stroke-dashoffset:0;stroke-opacity:1"><path
           id="path3428"
           d="m 474.16,410.04 0,-0.3 0.01,-0.31 0.01,-0.16 0.01,-0.16 0.02,-0.16 0.03,-0.16 0.04,-0.16 0.04,-0.16 0.05,-0.16 0.06,-0.16 0.08,-0.16 0.08,-0.15 0.1,-0.15 0.12,-0.15 0.13,-0.14 0.14,-0.14 0.16,-0.13 0.09,-0.06 0.09,-0.06 0.1,-0.06 0.1,-0.06 0.11,-0.06 0.11,-0.05 0.12,-0.05 0.12,-0.05 0.13,-0.05 0.13,-0.05 0.14,-0.04 0.15,-0.04 0.15,-0.04 0.15,-0.04 0.17,-0.03 0.17,-0.03 0.17,-0.03 0.18,-0.03 0.19,-0.02 0.2,-0.02 0.2,-0.02 0.21,-0.01 0.22,-0.02 0.22,0 0.23,-0.01 0.24,0 2.39,0 c 1,0 1.6,0 1.6,1.2 0,1.14 -0.64,1.14 -1.3,1.14 -3.03,0.05 -3.03,0.71 -3.03,1.85 l 0,10.7 c 0,4.44 -3.55,7.67 -10.97,7.67 -2.83,0 -8.91,-0.19 -8.91,-4.58 0,-2.18 1.74,-3.14 3.08,-3.14 1.55,0 3.14,1.05 3.14,3.14 0,1.5 -0.94,2.35 -1.09,2.44 1.39,0.3 2.98,0.36 3.59,0.36 3.74,0 5.47,-2.09 5.47,-5.89 l 0,-1.69 0,-1.54 0,-4.74 c 0,-4.78 -4.58,-5.42 -5.83,-5.42 -2.53,0 -4.53,1.73 -4.53,3.94 0,5.37 7.88,6.07 10.36,6.22 l 0,0 0,1.54 c -3.53,-0.15 -16.19,-0.59 -16.19,-7.83 0,-4.78 6.18,-5.67 9.61,-5.67 4,0 6.33,2.05 7.44,4.14 z"
           inkscape:connector-curvature="0"
           style="fill:#000000;stroke-width:0" /></g>    </g>
    <path
       style="fill:#ff0000;fill-opacity:1;stroke:#000000;stroke-width:0.28477886;stroke-opacity:0"
       id="path3567"
       sodipodi:type="arc"
       sodipodi:cx="219.81635"
       sodipodi:cy="343.73947"
       sodipodi:rx="7.0289674"
       sodipodi:ry="6.9234314"
       sodipodi:start="5.4977871"
       sodipodi:end="5.3360824"
       sodipodi:open="true"
       d="m 224.78658,338.84387 a 7.0289674,6.9234314 0 0 1 0.19681,9.58935 7.0289674,6.9234314 0 0 1 -9.71962,0.58125 7.0289674,6.9234314 0 0 1 -0.98245,-9.54237 7.0289674,6.9234314 0 0 1 9.6402,-1.35256" />
  </g>
  <g
     inkscape:groupmode="layer"
     id="layer4"
     inkscape:label="raff bleu"
     style="display:inline">
    <path
       style="display:inline;fill:none;fill-rule:evenodd;stroke:#0000ff;stroke-width:1;stroke-linecap:butt;stroke-linejoin:miter;stroke-miterlimit:4;stroke-dasharray:none;stroke-dashoffset:0;stroke-opacity:1"
       d="m 218.69802,343.99274 5.05077,-60.35662 90.40865,17.17259 79.80205,-8.5863 -5.3033,60.10408 39.64849,54.04316 -79.80205,7.57615 -44.44671,40.91117 -40.15357,-54.80078 -90.66119,-15.9099 45.45686,-40.15355 95.45942,-43.18403 74.49875,51.51778 -40.15356,61.61931 -84.60028,-13.88961 z"
       id="path4284"
       inkscape:connector-curvature="0" />
  </g>
</svg>
