<?xml version="1.0" encoding="UTF-8" standalone="no"?>
<!-- Created with Inkscape (http://www.inkscape.org/) -->

<svg
   xmlns:dc="http://purl.org/dc/elements/1.1/"
   xmlns:cc="http://creativecommons.org/ns#"
   xmlns:rdf="http://www.w3.org/1999/02/22-rdf-syntax-ns#"
   xmlns:svg="http://www.w3.org/2000/svg"
   xmlns="http://www.w3.org/2000/svg"
   xmlns:sodipodi="http://sodipodi.sourceforge.net/DTD/sodipodi-0.dtd"
   xmlns:inkscape="http://www.inkscape.org/namespaces/inkscape"
   width="210mm"
   height="297mm"
   viewBox="0 0 744.09448819 1052.3622047"
   id="svg2"
   version="1.1"
   inkscape:version="0.91 r13725"
   sodipodi:docname="patch_alg_2.svg">
  <sodipodi:namedview
     id="base"
     pagecolor="#ffffff"
     bordercolor="#666666"
     borderopacity="1.0"
     inkscape:pageopacity="0.0"
     inkscape:pageshadow="2"
     inkscape:zoom="1.4"
     inkscape:cx="137.04038"
     inkscape:cy="739.61608"
     inkscape:document-units="px"
     inkscape:current-layer="layer5"
     showgrid="false"
     inkscape:window-width="1863"
     inkscape:window-height="1059"
     inkscape:window-x="57"
     inkscape:window-y="21"
     inkscape:window-maximized="1"
     inkscape:snap-midpoints="true" />
  <defs
     id="defs4" />
  <metadata
     id="metadata7">
    <rdf:RDF>
      <cc:Work
         rdf:about="">
        <dc:format>image/svg+xml</dc:format>
        <dc:type
           rdf:resource="http://purl.org/dc/dcmitype/StillImage" />
        <dc:title></dc:title>
      </cc:Work>
    </rdf:RDF>
  </metadata>
  <g
     style="display:none;opacity:1"
     inkscape:label="raff petit pach"
     id="g4364"
     inkscape:groupmode="layer">
    <g
       transform="translate(0,5.0000001e-6)"
       id="g4366">
      <path
         style="fill:none;fill-rule:evenodd;stroke:#c70000;stroke-width:1;stroke-linecap:butt;stroke-linejoin:miter;stroke-miterlimit:4;stroke-dasharray:1, 1;stroke-dashoffset:0;stroke-opacity:1"
         d="m 306.20249,407.00099 -22.22335,20.45559 42.30013,6.9448 z"
         id="path4368"
         inkscape:connector-curvature="0" />
      <path
         style="fill:none;fill-rule:evenodd;stroke:#c80000;stroke-width:1;stroke-linecap:butt;stroke-linejoin:miter;stroke-miterlimit:4;stroke-dasharray:1, 1;stroke-dashoffset:0;stroke-opacity:1"
         d="m 306.20249,407.00099 23.10724,-19.31916 -42.93148,-8.08122 -45.07806,-7.57615 -45.3306,-7.95494 22.60216,28.03172 -22.60216,19.82425 44.44672,8.08122 -21.84456,-27.90547 22.72844,-20.07678 21.33947,-20.20305 23.23351,27.7792 0,0.50508"
         id="path4370"
         inkscape:connector-curvature="0" />
      <path
         style="fill:none;fill-rule:evenodd;stroke:#c80000;stroke-width:1;stroke-linecap:butt;stroke-linejoin:miter;stroke-miterlimit:4;stroke-dasharray:1, 1;stroke-dashoffset:0;stroke-opacity:1"
         d="m 240.92138,420.00671 43.05776,7.44987 -24.36994,19.82425 z"
         id="path4372"
         inkscape:connector-curvature="0" />
      <path
         style="fill:none;fill-rule:evenodd;stroke:#c70000;stroke-width:1;stroke-linecap:butt;stroke-linejoin:miter;stroke-miterlimit:4;stroke-dasharray:1, 1;stroke-dashoffset:0;stroke-opacity:1"
         d="m 285.87317,379.85315 20.32932,27.14784 0,0 0,0 0,0"
         id="path4374"
         inkscape:connector-curvature="0" />
      <path
         style="fill:none;fill-rule:evenodd;stroke:#c90000;stroke-width:1;stroke-linecap:butt;stroke-linejoin:miter;stroke-miterlimit:4;stroke-dasharray:1, 1;stroke-dashoffset:0;stroke-opacity:1"
         d="m 326.27927,434.40138 19.1929,26.01143 21.71828,-21.2132 40.91118,-1.51523 -19.69797,-27.52665 20.07678,-30.80966 39.52221,-4.29315 -21.2132,-26.76904 2.02031,-32.32488 -37.50192,6.31345 -37.24938,-25.75889 -0.50507,-32.57742 -37.37564,7.57615 -45.96194,-9.09138 -1.26269,29.7995 -47.72971,21.59202 -44.95179,-8.96511 0,30.30458 -24.74874,21.2132 44.44671,7.70242 -20.70812,-29.92578 45.96194,-20.32931 45.20432,8.58629 2.52539,-30.17831 47.7297,-20.70812 37.37564,25.00127 -2.65164,30.05204 39.90102,-4.29315 35.48161,25.50635 -18.30901,31.56727 -39.90103,3.78808 19.82425,27.02158 -21.21321,29.04188 z"
         id="path4376"
         inkscape:connector-curvature="0" />
      <path
         style="fill:none;fill-rule:evenodd;stroke:#c70000;stroke-width:1;stroke-linecap:butt;stroke-linejoin:miter;stroke-miterlimit:4;stroke-dasharray:1, 1;stroke-dashoffset:0;stroke-opacity:1"
         d="m 263.64981,351.31634 2.77792,-28.91562 44.69925,9.21764 40.27984,-5.05076 -2.90419,29.29442 -19.1929,31.31473 39.26968,-4.0406 -20.07678,-26.76905 -36.36549,-24.74874 z"
         id="path4378"
         inkscape:connector-curvature="0" />
    </g>
    <path
       style="fill:#b7c8b7;fill-opacity:1;fill-rule:evenodd;stroke:#000000;stroke-width:1px;stroke-linecap:butt;stroke-linejoin:miter;stroke-opacity:1"
       d="m 127.7843,326.06252 95.96449,-42.4264 90.40865,17.17259 -5.55584,60.60915 -89.90357,79.29698 -90.91373,-112.63201 0,0"
       id="path4380"
       inkscape:connector-curvature="0" />
    <path
       style="fill:#000000;fill-opacity:1;stroke:none;stroke-width:1;stroke-miterlimit:4;stroke-dasharray:1, 1;stroke-dashoffset:0;stroke-opacity:1"
       id="path4382"
       sodipodi:type="arc"
       sodipodi:cx="218.69804"
       sodipodi:cy="344.75034"
       sodipodi:rx="4.5456862"
       sodipodi:ry="4.0406103"
       sodipodi:start="5.4977871"
       sodipodi:end="5.3360824"
       sodipodi:open="true"
       d="m 221.91233,341.89319 a 4.5456862,4.0406103 0 0 1 0.12728,5.59648 4.5456862,4.0406103 0 0 1 -6.28575,0.33923 4.5456862,4.0406103 0 0 1 -0.63536,-5.56906 4.5456862,4.0406103 0 0 1 6.23439,-0.78938" />
    <text
       xml:space="preserve"
       style="font-style:normal;font-variant:normal;font-weight:normal;font-stretch:normal;font-size:17.5px;line-height:125%;font-family:'Times New Roman';-inkscape-font-specification:'Times New Roman, Normal';text-align:start;letter-spacing:0px;word-spacing:0px;writing-mode:lr-tb;text-anchor:start;fill:#000000;fill-opacity:1;stroke:none;stroke-width:1px;stroke-linecap:butt;stroke-linejoin:miter;stroke-opacity:1"
       x="206.07112"
       y="338.68945"
       id="text4384"
       sodipodi:linespacing="125%"><tspan
         sodipodi:role="line"
         id="tspan4386"
         x="206.07112"
         y="338.68945">a</tspan></text>
    <g
       id="g3386">
      <g
         id="content"
         transform="matrix(1.06299212598,0,0,-1.06299212598,-186.023622047,789.27165354)"
         xml:space="preserve"
         stroke="black"
         stroke-linecap="butt"
         stroke-linejoin="miter"
         stroke-miterlimit="10.433"
         stroke-dasharray="none"
         stroke-dashoffset="0"
         stroke-opacity="1"
         fill="none"
         fill-rule="evenodd"
         fill-opacity="1"
         font-style="normal"
         font-variant="normal"
         font-weight="normal"
         font-stretch="normal"
         font-size-adjust="none"
         letter-spacing="normal"
         word-spacing="normal"
         text-anchor="start"><path
           d="M474.16,410.04 L474.16,409.74 L474.17,409.43 L474.18,409.27 L474.19,409.11 L474.21,408.95 L474.24,408.79 L474.28,408.63 L474.32,408.47 L474.37,408.31 L474.43,408.15 L474.51,407.99 L474.59,407.84 L474.69,407.69 L474.81,407.54 L474.94,407.4 L475.08,407.26 L475.24,407.13 L475.33,407.07 L475.42,407.01 L475.52,406.95 L475.62,406.89 L475.73,406.83 L475.84,406.78 L475.96,406.73 L476.08,406.68 L476.21,406.63 L476.34,406.58 L476.48,406.54 L476.63,406.5 L476.78,406.46 L476.93,406.42 L477.1,406.39 L477.27,406.36 L477.44,406.33 L477.62,406.3 L477.81,406.28 L478.01,406.26 L478.21,406.24 L478.42,406.23 L478.64,406.21 L478.86,406.21 L479.09,406.2 L479.33,406.2 H481.72 C482.72,406.2,483.32,406.2,483.32,407.4 C483.32,408.54,482.68,408.54,482.02,408.54 C478.99,408.59,478.99,409.25,478.99,410.39 V421.09 C478.99,425.53,475.44,428.76,468.02,428.76 C465.19,428.76,459.11,428.57,459.11,424.18 C459.11,422,460.85,421.04,462.19,421.04 C463.74,421.04,465.33,422.09,465.33,424.18 C465.33,425.68,464.39,426.53,464.24,426.62 C465.63,426.92,467.22,426.98,467.83,426.98 C471.57,426.98,473.3,424.89,473.3,421.09 V419.4 V417.86 V413.12 C473.3,408.34,468.72,407.7,467.47,407.7 C464.94,407.7,462.94,409.43,462.94,411.64 C462.94,417.01,470.82,417.71,473.3,417.86 H473.3 V419.4 C469.77,419.25,457.11,418.81,457.11,411.57 C457.11,406.79,463.29,405.9,466.72,405.9 C470.72,405.9,473.05,407.95,474.16,410.04 Z "
           stroke-width="0"
           fill="black"
           id="path3389" /></g>    </g>
    <g
       id="g3479">
      <g
         text-anchor="start"
         word-spacing="normal"
         letter-spacing="normal"
         font-size-adjust="none"
         font-stretch="normal"
         font-weight="normal"
         font-variant="normal"
         font-style="normal"
         fill-opacity="1"
         fill-rule="evenodd"
         fill="none"
         stroke-opacity="1"
         stroke-dashoffset="0"
         stroke-dasharray="none"
         stroke-miterlimit="10.433"
         stroke-linejoin="miter"
         stroke-linecap="butt"
         stroke="black"
         xml:space="preserve"
         transform="matrix(1.06299212598,0,0,-1.06299212598,-186.023622047,789.27165354)"
         id="g3481"><path
           id="path3483"
           fill="black"
           stroke-width="0"
           d="M474.16,410.04 L474.16,409.74 L474.17,409.43 L474.18,409.27 L474.19,409.11 L474.21,408.95 L474.24,408.79 L474.28,408.63 L474.32,408.47 L474.37,408.31 L474.43,408.15 L474.51,407.99 L474.59,407.84 L474.69,407.69 L474.81,407.54 L474.94,407.4 L475.08,407.26 L475.24,407.13 L475.33,407.07 L475.42,407.01 L475.52,406.95 L475.62,406.89 L475.73,406.83 L475.84,406.78 L475.96,406.73 L476.08,406.68 L476.21,406.63 L476.34,406.58 L476.48,406.54 L476.63,406.5 L476.78,406.46 L476.93,406.42 L477.1,406.39 L477.27,406.36 L477.44,406.33 L477.62,406.3 L477.81,406.28 L478.01,406.26 L478.21,406.24 L478.42,406.23 L478.64,406.21 L478.86,406.21 L479.09,406.2 L479.33,406.2 H481.72 C482.72,406.2,483.32,406.2,483.32,407.4 C483.32,408.54,482.68,408.54,482.02,408.54 C478.99,408.59,478.99,409.25,478.99,410.39 V421.09 C478.99,425.53,475.44,428.76,468.02,428.76 C465.19,428.76,459.11,428.57,459.11,424.18 C459.11,422,460.85,421.04,462.19,421.04 C463.74,421.04,465.33,422.09,465.33,424.18 C465.33,425.68,464.39,426.53,464.24,426.62 C465.63,426.92,467.22,426.98,467.83,426.98 C471.57,426.98,473.3,424.89,473.3,421.09 V419.4 V417.86 V413.12 C473.3,408.34,468.72,407.7,467.47,407.7 C464.94,407.7,462.94,409.43,462.94,411.64 C462.94,417.01,470.82,417.71,473.3,417.86 H473.3 V419.4 C469.77,419.25,457.11,418.81,457.11,411.57 C457.11,406.79,463.29,405.9,466.72,405.9 C470.72,405.9,473.05,407.95,474.16,410.04 Z " /></g>    </g>
  </g>
  <g
     inkscape:groupmode="layer"
     id="layer3"
     inkscape:label="raff rouge"
     style="display:none">
    <g
       id="g4346"
       transform="translate(0,5.0000001e-6)">
      <path
         inkscape:connector-curvature="0"
         id="path4290"
         d="m 306.20249,407.00099 -22.22335,20.45559 42.30013,6.9448 z"
         style="fill:none;fill-rule:evenodd;stroke:#c70000;stroke-width:1;stroke-linecap:butt;stroke-linejoin:miter;stroke-miterlimit:4;stroke-dasharray:1, 1;stroke-dashoffset:0;stroke-opacity:1" />
      <path
         inkscape:connector-curvature="0"
         id="path4292"
         d="m 306.20249,407.00099 23.10724,-19.31916 -42.93148,-8.08122 -45.07806,-7.57615 -45.3306,-7.95494 22.60216,28.03172 -22.60216,19.82425 44.44672,8.08122 -21.84456,-27.90547 22.72844,-20.07678 21.33947,-20.20305 23.23351,27.7792 0,0.50508"
         style="fill:none;fill-rule:evenodd;stroke:#c80000;stroke-width:1;stroke-linecap:butt;stroke-linejoin:miter;stroke-miterlimit:4;stroke-dasharray:1, 1;stroke-dashoffset:0;stroke-opacity:1" />
      <path
         inkscape:connector-curvature="0"
         id="path4294"
         d="m 240.92138,420.00671 43.05776,7.44987 -24.36994,19.82425 z"
         style="fill:none;fill-rule:evenodd;stroke:#c80000;stroke-width:1;stroke-linecap:butt;stroke-linejoin:miter;stroke-miterlimit:4;stroke-dasharray:1, 1;stroke-dashoffset:0;stroke-opacity:1" />
      <path
         inkscape:connector-curvature="0"
         id="path4296"
         d="m 285.87317,379.85315 20.32932,27.14784 0,0 0,0 0,0"
         style="fill:none;fill-rule:evenodd;stroke:#c70000;stroke-width:1;stroke-linecap:butt;stroke-linejoin:miter;stroke-miterlimit:4;stroke-dasharray:1, 1;stroke-dashoffset:0;stroke-opacity:1" />
      <path
         inkscape:connector-curvature="0"
         id="path4300"
         d="m 326.27927,434.40138 19.1929,26.01143 21.71828,-21.2132 40.91118,-1.51523 -19.69797,-27.52665 20.07678,-30.80966 39.52221,-4.29315 -21.2132,-26.76904 2.02031,-32.32488 -37.50192,6.31345 -37.24938,-25.75889 -0.50507,-32.57742 -37.37564,7.57615 -45.96194,-9.09138 -1.26269,29.7995 -47.72971,21.59202 -44.95179,-8.96511 0,30.30458 -24.74874,21.2132 44.44671,7.70242 -20.70812,-29.92578 45.96194,-20.32931 45.20432,8.58629 2.52539,-30.17831 47.7297,-20.70812 37.37564,25.00127 -2.65164,30.05204 39.90102,-4.29315 35.48161,25.50635 -18.30901,31.56727 -39.90103,3.78808 19.82425,27.02158 -21.21321,29.04188 z"
         style="fill:none;fill-rule:evenodd;stroke:#c90000;stroke-width:1;stroke-linecap:butt;stroke-linejoin:miter;stroke-miterlimit:4;stroke-dasharray:1, 1;stroke-dashoffset:0;stroke-opacity:1" />
      <path
         inkscape:connector-curvature="0"
         id="path4302"
         d="m 263.64981,351.31634 2.77792,-28.91562 44.69925,9.21764 40.27984,-5.05076 -2.90419,29.29442 -19.1929,31.31473 39.26968,-4.0406 -20.07678,-26.76905 -36.36549,-24.74874 z"
         style="fill:none;fill-rule:evenodd;stroke:#c70000;stroke-width:1;stroke-linecap:butt;stroke-linejoin:miter;stroke-miterlimit:4;stroke-dasharray:1, 1;stroke-dashoffset:0;stroke-opacity:1" />
    </g>
  </g>
  <g
     inkscape:groupmode="layer"
     id="layer5"
     inkscape:label="raff gros patch"
     style="display:inline">
    <path
       style="fill:#b7b7c8;fill-opacity:1;fill-rule:evenodd;stroke:none;stroke-width:1px;stroke-linecap:butt;stroke-linejoin:miter;stroke-opacity:1"
       d="M 128.79445,327.07268 319.71328,239.69448 466.94302,344.24527 389.91888,467.48388 218.69803,440.71484 Z"
       id="path4359"
       inkscape:connector-curvature="0" />
  </g>
  <g
     inkscape:groupmode="layer"
     id="layer2"
     inkscape:label="origine"
     style="display:inline">
    <path
       style="fill:none;fill-rule:evenodd;stroke:#000000;stroke-width:1px;stroke-linecap:butt;stroke-linejoin:miter;stroke-opacity:1"
       d="M 127.27922,327.07268 320.21836,240.19956 467.70063,344.24527 388.90873,468.49403 219.2031,441.21991 Z"
       id="path4136"
       inkscape:connector-curvature="0" />
    <path
       style="fill:none;fill-rule:evenodd;stroke:#000000;stroke-width:1px;stroke-linecap:butt;stroke-linejoin:miter;stroke-opacity:1"
       d="m 309.10668,361.41786 10.10152,-121.2183 1.01016,-1.01015 1.01015,1.01015"
       id="path4138"
       inkscape:connector-curvature="0" />
    <path
       style="fill:none;fill-rule:evenodd;stroke:#010000;stroke-width:1px;stroke-linecap:butt;stroke-linejoin:miter;stroke-opacity:1"
       d="m 219.2031,440.20976 89.3985,-80.30713 79.80205,108.08633"
       id="path4140"
       inkscape:connector-curvature="0" />
    <path
       style="fill:none;fill-rule:evenodd;stroke:#000000;stroke-width:1px;stroke-linecap:butt;stroke-linejoin:miter;stroke-opacity:1"
       d="m 127.27922,327.07268 182.83761,33.84011 157.07872,-17.1726 -0.50507,1.01016"
       id="path4144"
       inkscape:connector-curvature="0" />
    <path
       style="fill:none;fill-opacity:1;stroke:#000000;stroke-opacity:0"
       id="path4148"
       sodipodi:type="arc"
       sodipodi:cx="101.52033"
       sodipodi:cy="213.17798"
       sodipodi:rx="7.0710678"
       sodipodi:ry="6.8185296"
       sodipodi:start="5.4977871"
       sodipodi:end="5.3360824"
       sodipodi:open="true"
       d="m 106.52033,208.35655 a 7.0710678,6.8185296 0 0 1 0.19799,9.44406 7.0710678,6.8185296 0 0 1 -9.777832,0.57245 7.0710678,6.8185296 0 0 1 -0.988337,-9.39779 7.0710678,6.8185296 0 0 1 9.697949,-1.33208" />
    <path
       style="fill:none;fill-opacity:1;stroke:#000000;stroke-opacity:0"
       id="path4150"
       sodipodi:type="arc"
       sodipodi:cx="118.69292"
       sodipodi:cy="229.34042"
       sodipodi:rx="13.131983"
       sodipodi:ry="12.879445"
       sodipodi:start="5.4977871"
       sodipodi:end="5.3360824"
       sodipodi:open="true"
       d="m 127.97863,220.23328 a 13.131983,12.879445 0 0 1 0.3677,17.83878 13.131983,12.879445 0 0 1 -18.15884,1.08129 13.131983,12.879445 0 0 1 -1.83548,-17.75138 13.131983,12.879445 0 0 1 18.01047,-2.51614" />
    <path
       style="fill:none;fill-opacity:1;stroke:#000000;stroke-opacity:0"
       id="path4165"
       sodipodi:type="arc"
       sodipodi:cx="404.5661"
       sodipodi:cy="222.77443"
       sodipodi:rx="5.0507627"
       sodipodi:ry="7.323606"
       sodipodi:start="5.4977871"
       sodipodi:end="5.3360824"
       sodipodi:open="true"
       d="m 408.13753,217.59586 a 5.0507627,7.323606 0 0 1 0.14142,10.14362 5.0507627,7.323606 0 0 1 -6.98417,0.61485 5.0507627,7.323606 0 0 1 -0.70595,-10.09392 5.0507627,7.323606 0 0 1 6.9271,-1.43075" />
    <path
       d="m 223.86045,437.06643 a 5.5155678,5.5155678 0 0 1 0.15444,7.63938 5.5155678,5.5155678 0 0 1 -7.6269,0.46306 5.5155678,5.5155678 0 0 1 -0.77092,-7.60196 5.5155678,5.5155678 0 0 1 7.56458,-1.07752"
       sodipodi:open="true"
       sodipodi:end="5.3360824"
       sodipodi:start="5.4977871"
       sodipodi:ry="5.5155678"
       sodipodi:rx="5.5155678"
       sodipodi:cy="440.96652"
       sodipodi:cx="219.96036"
       sodipodi:type="arc"
       id="path3660"
       style="fill:#000000;fill-opacity:1;stroke:#000000;stroke-width:0.22516014;stroke-opacity:0" />
    <path
       style="fill:#000000;fill-opacity:1;stroke:#000000;stroke-width:0.22516014;stroke-opacity:0"
       id="path3662"
       sodipodi:type="arc"
       sodipodi:cx="320.3175"
       sodipodi:cy="238.82367"
       sodipodi:rx="5.5155678"
       sodipodi:ry="5.5155678"
       sodipodi:start="5.4977871"
       sodipodi:end="5.3360824"
       sodipodi:open="true"
       d="m 324.2176,234.92357 a 5.5155678,5.5155678 0 0 1 0.15444,7.63939 5.5155678,5.5155678 0 0 1 -7.6269,0.46305 5.5155678,5.5155678 0 0 1 -0.77092,-7.60195 5.5155678,5.5155678 0 0 1 7.56458,-1.07753" />
    <path
       d="m 391.7176,463.49502 a 5.5155678,5.5155678 0 0 1 0.15444,7.63938 5.5155678,5.5155678 0 0 1 -7.6269,0.46305 5.5155678,5.5155678 0 0 1 -0.77092,-7.60195 5.5155678,5.5155678 0 0 1 7.56458,-1.07752"
       sodipodi:open="true"
       sodipodi:end="5.3360824"
       sodipodi:start="5.4977871"
       sodipodi:ry="5.5155678"
       sodipodi:rx="5.5155678"
       sodipodi:cy="467.39511"
       sodipodi:cx="387.8175"
       sodipodi:type="arc"
       id="path3664"
       style="fill:#000000;fill-opacity:1;stroke:#000000;stroke-width:0.22516014;stroke-opacity:0" />
    <path
       style="fill:#ff0000;fill-opacity:1;stroke:#000000;stroke-width:0.28231582;stroke-opacity:0"
       id="path3666"
       sodipodi:type="arc"
       sodipodi:cx="310.67462"
       sodipodi:cy="360.25229"
       sodipodi:rx="6.9156651"
       sodipodi:ry="6.9156651"
       sodipodi:start="5.4977871"
       sodipodi:end="5.3360824"
       sodipodi:open="true"
       d="m 315.56474,355.36217 a 6.9156651,6.9156651 0 0 1 0.19363,9.5786 6.9156651,6.9156651 0 0 1 -9.56294,0.5806 6.9156651,6.9156651 0 0 1 -0.96662,-9.53166 6.9156651,6.9156651 0 0 1 9.48482,-1.35105" />
    <path
       d="m 471.00334,339.92354 a 5.5155678,5.5155678 0 0 1 0.15443,7.63938 5.5155678,5.5155678 0 0 1 -7.6269,0.46306 5.5155678,5.5155678 0 0 1 -0.77092,-7.60195 5.5155678,5.5155678 0 0 1 7.56459,-1.07753"
       sodipodi:open="true"
       sodipodi:end="5.3360824"
       sodipodi:start="5.4977871"
       sodipodi:ry="5.5155678"
       sodipodi:rx="5.5155678"
       sodipodi:cy="343.82364"
       sodipodi:cx="467.10324"
       sodipodi:type="arc"
       id="path3668"
       style="fill:#000000;fill-opacity:1;stroke:#000000;stroke-width:0.22516014;stroke-opacity:0" />
    <path
       style="fill:#000000;fill-opacity:1;stroke:#000000;stroke-width:0.22516014;stroke-opacity:0"
       id="path3670"
       sodipodi:type="arc"
       sodipodi:cx="128.88898"
       sodipodi:cy="326.32367"
       sodipodi:rx="5.5155678"
       sodipodi:ry="5.5155678"
       sodipodi:start="5.4977871"
       sodipodi:end="5.3360824"
       sodipodi:open="true"
       d="m 132.78907,322.42357 a 5.5155678,5.5155678 0 0 1 0.15444,7.63939 5.5155678,5.5155678 0 0 1 -7.6269,0.46305 5.5155678,5.5155678 0 0 1 -0.77092,-7.60195 5.5155678,5.5155678 0 0 1 7.56458,-1.07753" />
    <g
       id="g3756"
       transform="matrix(0.44513761,0,0,0.44513761,136.10819,331.14032)">
      <g
         word-spacing="normal"
         letter-spacing="normal"
         font-size-adjust="none"
         font-stretch="normal"
         font-weight="normal"
         font-variant="normal"
         font-style="normal"
         stroke-miterlimit="10.433"
         xml:space="preserve"
         transform="matrix(1.0629921,0,0,-1.0629921,-186.02362,789.27165)"
         id="g3758"
         style="font-style:normal;font-variant:normal;font-weight:normal;font-stretch:normal;letter-spacing:normal;word-spacing:normal;text-anchor:start;fill:none;fill-opacity:1;fill-rule:evenodd;stroke:#000000;stroke-linecap:butt;stroke-linejoin:miter;stroke-miterlimit:10.43299961;stroke-dasharray:none;stroke-dashoffset:0;stroke-opacity:1"><path
           id="path3760"
           d="m 482.47,436.59 0.04,0.15 0.04,0.14 0.03,0.14 0.04,0.13 0.03,0.12 0.04,0.12 0.04,0.11 0.04,0.11 0.04,0.1 0.04,0.09 0.05,0.09 0.05,0.08 0.06,0.08 0.06,0.07 0.07,0.07 0.08,0.06 0.08,0.06 0.09,0.05 0.09,0.05 0.11,0.04 0.11,0.04 0.13,0.04 0.13,0.03 0.07,0.01 0.08,0.02 0.07,0.01 0.08,0.01 0.08,0.01 0.09,0.01 0.09,0.01 0.09,0.01 0.09,0.01 0.1,0 0.1,0.01 0.11,0 0.1,0.01 0.11,0 0.12,0 0.12,0 0.12,0 0.13,0 c 0.79,0 1.34,0 1.34,0.96 0,0.43 -0.3,0.59 -0.69,0.59 -1.25,0 -4.28,-0.16 -5.53,-0.16 -1.64,0 -5.69,0.16 -7.33,0.16 -0.45,0 -1.04,0 -1.04,-1 0,-0.55 0.4,-0.55 1.7,-0.55 1.14,0 1.64,0 2.88,-0.09 1.2,-0.16 1.54,-0.31 1.54,-1 0,-0.3 -0.09,-0.66 -0.19,-1.05 l -5.73,-22.87 c -1.2,-4.83 -4.58,-7.47 -7.17,-7.47 -1.3,0 -3.94,0.5 -4.74,3.09 0.14,-0.04 0.5,-0.04 0.6,-0.04 1.94,0 3.23,1.68 3.23,3.18 0,1.6 -1.34,2.08 -2.19,2.08 -0.89,0 -3.34,-0.59 -3.34,-3.98 0,-3.08 2.64,-5.42 6.58,-5.42 4.59,0 9.76,3.28 11.01,8.21 z"
           inkscape:connector-curvature="0"
           style="fill:#000000;stroke-width:0" /><path
           id="path3762"
           d="m 536.07,422.5 0.14,0 0.14,0 0.15,0 0.07,0.01 0.07,0 0.08,0.01 0.07,0.01 0.07,0.01 0.07,0.01 0.07,0.01 0.06,0.02 0.07,0.02 0.06,0.02 0.06,0.02 0.06,0.03 0.05,0.03 0.06,0.04 0.05,0.03 0.04,0.05 0.05,0.04 0.04,0.05 0.02,0.03 0.01,0.03 0.02,0.02 0.02,0.03 0.01,0.03 0.01,0.04 0.01,0.03 0.02,0.04 0.01,0.03 0,0.04 0.01,0.04 0.01,0.04 0,0.04 0.01,0.04 0,0.04 0,0.05 c 0,1 -0.96,1 -1.64,1 l -29.85,0 c -0.7,0 -1.64,0 -1.64,-1 0,-0.98 0.94,-0.98 1.69,-0.98 z"
           inkscape:connector-curvature="0"
           style="fill:#000000;stroke-width:0" /><path
           id="path3764"
           d="m 536.12,412.82 0.06,0 0.07,0 0.14,0.01 0.13,0 0.07,0 0.07,0.01 0.07,0.01 0.07,0 0.07,0.01 0.07,0.02 0.07,0.01 0.06,0.02 0.06,0.02 0.07,0.02 0.06,0.02 0.05,0.03 0.06,0.03 0.05,0.04 0.05,0.04 0.05,0.04 0.04,0.05 0.02,0.02 0.02,0.03 0.02,0.02 0.01,0.03 0.02,0.03 0.02,0.03 0.01,0.03 0.01,0.03 0.01,0.04 0.02,0.03 0.01,0.04 0,0.04 0.01,0.04 0.01,0.04 0,0.04 0.01,0.04 0,0.05 0,0.04 c 0,1 -0.96,1 -1.69,1 l -29.75,0 c -0.75,0 -1.69,0 -1.69,-1 0,-1 0.94,-1 1.64,-1 z"
           inkscape:connector-curvature="0"
           style="fill:#000000;stroke-width:0" /><path
           id="path3766"
           d="m 560.72,410.04 5.28,5.13 c 7.77,6.87 10.77,9.56 10.77,14.54 0,5.69 -4.49,9.68 -10.56,9.68 -5.64,0 -9.33,-4.6 -9.33,-9.03 0,-2.79 2.5,-2.79 2.64,-2.79 0.86,0 2.59,0.6 2.59,2.64 0,1.3 -0.89,2.6 -2.64,2.6 -0.39,0 -0.5,0 -0.64,-0.05 1.14,3.24 3.83,5.08 6.72,5.08 4.53,0 6.69,-4.05 6.69,-8.13 0,-3.98 -2.5,-7.92 -5.24,-11.01 l -9.56,-10.66 c -0.56,-0.54 -0.56,-0.64 -0.56,-1.84 l 18.48,0 1.41,8.67 -1.25,0 c -0.25,-1.5 -0.59,-3.69 -1.09,-4.44 -0.36,-0.39 -3.65,-0.39 -4.74,-0.39 z"
           inkscape:connector-curvature="0"
           style="fill:#000000;stroke-width:0" /></g>    </g>
  </g>
  <g
     inkscape:groupmode="layer"
     id="layer4"
     inkscape:label="raff bleu"
     style="display:inline">
    <path
       style="display:inline;fill:none;fill-rule:evenodd;stroke:#0000ff;stroke-width:1;stroke-linecap:butt;stroke-linejoin:miter;stroke-miterlimit:4;stroke-dasharray:none;stroke-dashoffset:0;stroke-opacity:1"
       d="m 218.69802,343.99274 5.05077,-60.35662 90.40865,17.17259 79.80205,-8.5863 -5.3033,60.10408 39.64849,54.04316 -79.80205,7.57615 -44.44671,40.91117 -40.15357,-54.80078 -90.66119,-15.9099 45.45686,-40.15355 95.45942,-43.18403 74.49875,51.51778 -40.15356,61.61931 -84.60028,-13.88961 z"
       id="path4284"
       inkscape:connector-curvature="0" />
    <g
       transform="matrix(0.64726646,0,0,0.64726646,118.63513,123.35202)"
       id="g3605">
      <g
         style="font-style:normal;font-variant:normal;font-weight:normal;font-stretch:normal;letter-spacing:normal;word-spacing:normal;text-anchor:start;fill:none;fill-opacity:1;fill-rule:evenodd;stroke:#000000;stroke-linecap:butt;stroke-linejoin:miter;stroke-miterlimit:10.43299961;stroke-dasharray:none;stroke-dashoffset:0;stroke-opacity:1"
         id="g3607"
         transform="matrix(1.0629921,0,0,-1.0629921,-186.02362,789.27165)"
         xml:space="preserve"
         stroke-miterlimit="10.433"
         font-style="normal"
         font-variant="normal"
         font-weight="normal"
         font-stretch="normal"
         font-size-adjust="none"
         letter-spacing="normal"
         word-spacing="normal"><path
           style="fill:#000000;stroke-width:0"
           inkscape:connector-curvature="0"
           d="m 474.16,410.04 0,-0.3 0.01,-0.31 0.01,-0.16 0.01,-0.16 0.02,-0.16 0.03,-0.16 0.04,-0.16 0.04,-0.16 0.05,-0.16 0.06,-0.16 0.08,-0.16 0.08,-0.15 0.1,-0.15 0.12,-0.15 0.13,-0.14 0.14,-0.14 0.16,-0.13 0.09,-0.06 0.09,-0.06 0.1,-0.06 0.1,-0.06 0.11,-0.06 0.11,-0.05 0.12,-0.05 0.12,-0.05 0.13,-0.05 0.13,-0.05 0.14,-0.04 0.15,-0.04 0.15,-0.04 0.15,-0.04 0.17,-0.03 0.17,-0.03 0.17,-0.03 0.18,-0.03 0.19,-0.02 0.2,-0.02 0.2,-0.02 0.21,-0.01 0.22,-0.02 0.22,0 0.23,-0.01 0.24,0 2.39,0 c 1,0 1.6,0 1.6,1.2 0,1.14 -0.64,1.14 -1.3,1.14 -3.03,0.05 -3.03,0.71 -3.03,1.85 l 0,10.7 c 0,4.44 -3.55,7.67 -10.97,7.67 -2.83,0 -8.91,-0.19 -8.91,-4.58 0,-2.18 1.74,-3.14 3.08,-3.14 1.55,0 3.14,1.05 3.14,3.14 0,1.5 -0.94,2.35 -1.09,2.44 1.39,0.3 2.98,0.36 3.59,0.36 3.74,0 5.47,-2.09 5.47,-5.89 l 0,-1.69 0,-1.54 0,-4.74 c 0,-4.78 -4.58,-5.42 -5.83,-5.42 -2.53,0 -4.53,1.73 -4.53,3.94 0,5.37 7.88,6.07 10.36,6.22 l 0,0 0,1.54 c -3.53,-0.15 -16.19,-0.59 -16.19,-7.83 0,-4.78 6.18,-5.67 9.61,-5.67 4,0 6.33,2.05 7.44,4.14 z"
           id="path3609" /></g>    </g>
  </g>
</svg>
