<?xml version="1.0" encoding="UTF-8" standalone="no"?>
<svg
   xmlns:dc="http://purl.org/dc/elements/1.1/"
   xmlns:cc="http://creativecommons.org/ns#"
   xmlns:rdf="http://www.w3.org/1999/02/22-rdf-syntax-ns#"
   xmlns:svg="http://www.w3.org/2000/svg"
   xmlns="http://www.w3.org/2000/svg"
   xmlns:sodipodi="http://sodipodi.sourceforge.net/DTD/sodipodi-0.dtd"
   xmlns:inkscape="http://www.inkscape.org/namespaces/inkscape"
   version="1.1"
   id="svg2"
   viewBox="0 0 744.09448819 1052.3622047"
   height="297mm"
   width="210mm"
   inkscape:version="0.91 r13725"
   sodipodi:docname="patch_alg_1.svg">
  <sodipodi:namedview
     pagecolor="#ffffff"
     bordercolor="#666666"
     borderopacity="1"
     objecttolerance="10"
     gridtolerance="10"
     guidetolerance="10"
     inkscape:pageopacity="0"
     inkscape:pageshadow="2"
     inkscape:window-width="1863"
     inkscape:window-height="1059"
     id="namedview43"
     showgrid="false"
     inkscape:zoom="1.7940591"
     inkscape:cx="136.44448"
     inkscape:cy="683.10276"
     inkscape:window-x="57"
     inkscape:window-y="21"
     inkscape:window-maximized="1"
     inkscape:current-layer="layer2" />
  <defs
     id="defs4" />
  <metadata
     id="metadata7">
    <rdf:RDF>
      <cc:Work
         rdf:about="">
        <dc:format>image/svg+xml</dc:format>
        <dc:type
           rdf:resource="http://purl.org/dc/dcmitype/StillImage" />
        <dc:title></dc:title>
      </cc:Work>
    </rdf:RDF>
  </metadata>
  <g
     id="g4364"
     style="display:none;opacity:1">
    <g
       id="g4366"
       transform="translate(0,5.0000001e-6)">
      <path
         id="path4368"
         d="m 306.20249,407.00099 -22.22335,20.45559 42.30013,6.9448 z"
         style="fill:none;fill-rule:evenodd;stroke:#c70000;stroke-width:1;stroke-linecap:butt;stroke-linejoin:miter;stroke-miterlimit:4;stroke-dasharray:1, 1;stroke-dashoffset:0;stroke-opacity:1" />
      <path
         id="path4370"
         d="m 306.20249,407.00099 23.10724,-19.31916 -42.93148,-8.08122 -45.07806,-7.57615 -45.3306,-7.95494 22.60216,28.03172 -22.60216,19.82425 44.44672,8.08122 -21.84456,-27.90547 22.72844,-20.07678 21.33947,-20.20305 23.23351,27.7792 0,0.50508"
         style="fill:none;fill-rule:evenodd;stroke:#c80000;stroke-width:1;stroke-linecap:butt;stroke-linejoin:miter;stroke-miterlimit:4;stroke-dasharray:1, 1;stroke-dashoffset:0;stroke-opacity:1" />
      <path
         id="path4372"
         d="m 240.92138,420.00671 43.05776,7.44987 -24.36994,19.82425 z"
         style="fill:none;fill-rule:evenodd;stroke:#c80000;stroke-width:1;stroke-linecap:butt;stroke-linejoin:miter;stroke-miterlimit:4;stroke-dasharray:1, 1;stroke-dashoffset:0;stroke-opacity:1" />
      <path
         id="path4374"
         d="m 285.87317,379.85315 20.32932,27.14784 0,0 0,0 0,0"
         style="fill:none;fill-rule:evenodd;stroke:#c70000;stroke-width:1;stroke-linecap:butt;stroke-linejoin:miter;stroke-miterlimit:4;stroke-dasharray:1, 1;stroke-dashoffset:0;stroke-opacity:1" />
      <path
         id="path4376"
         d="m 326.27927,434.40138 19.1929,26.01143 21.71828,-21.2132 40.91118,-1.51523 -19.69797,-27.52665 20.07678,-30.80966 39.52221,-4.29315 -21.2132,-26.76904 2.02031,-32.32488 -37.50192,6.31345 -37.24938,-25.75889 -0.50507,-32.57742 -37.37564,7.57615 -45.96194,-9.09138 -1.26269,29.7995 -47.72971,21.59202 -44.95179,-8.96511 0,30.30458 -24.74874,21.2132 44.44671,7.70242 -20.70812,-29.92578 45.96194,-20.32931 45.20432,8.58629 2.52539,-30.17831 47.7297,-20.70812 37.37564,25.00127 -2.65164,30.05204 39.90102,-4.29315 35.48161,25.50635 -18.30901,31.56727 -39.90103,3.78808 19.82425,27.02158 -21.21321,29.04188 z"
         style="fill:none;fill-rule:evenodd;stroke:#c90000;stroke-width:1;stroke-linecap:butt;stroke-linejoin:miter;stroke-miterlimit:4;stroke-dasharray:1, 1;stroke-dashoffset:0;stroke-opacity:1" />
      <path
         id="path4378"
         d="m 263.64981,351.31634 2.77792,-28.91562 44.69925,9.21764 40.27984,-5.05076 -2.90419,29.29442 -19.1929,31.31473 39.26968,-4.0406 -20.07678,-26.76905 -36.36549,-24.74874 z"
         style="fill:none;fill-rule:evenodd;stroke:#c70000;stroke-width:1;stroke-linecap:butt;stroke-linejoin:miter;stroke-miterlimit:4;stroke-dasharray:1, 1;stroke-dashoffset:0;stroke-opacity:1" />
    </g>
    <path
       id="path4380"
       d="m 127.7843,326.06252 95.96449,-42.4264 90.40865,17.17259 -5.55584,60.60915 -89.90357,79.29698 -90.91373,-112.63201 0,0"
       style="fill:#b7c8b7;fill-opacity:1;fill-rule:evenodd;stroke:#000000;stroke-width:1px;stroke-linecap:butt;stroke-linejoin:miter;stroke-opacity:1" />
    <path
       d="m 221.91233,341.89319 a 4.5456862,4.0406103 0 0 1 0.12728,5.59648 4.5456862,4.0406103 0 0 1 -6.28575,0.33923 4.5456862,4.0406103 0 0 1 -0.63536,-5.56906 4.5456862,4.0406103 0 0 1 6.23439,-0.78938"
       id="path4382"
       style="fill:#000000;fill-opacity:1;stroke:none;stroke-width:1;stroke-miterlimit:4;stroke-dasharray:1, 1;stroke-dashoffset:0;stroke-opacity:1" />
    <text
       id="text4384"
       y="338.68945"
       x="206.07112"
       style="font-style:normal;font-variant:normal;font-weight:normal;font-stretch:normal;font-size:17.5px;line-height:125%;font-family:'Times New Roman';-inkscape-font-specification:'Times New Roman, Normal';text-align:start;letter-spacing:0px;word-spacing:0px;writing-mode:lr-tb;text-anchor:start;fill:#000000;fill-opacity:1;stroke:none;stroke-width:1px;stroke-linecap:butt;stroke-linejoin:miter;stroke-opacity:1"
       xml:space="preserve"><tspan
         y="338.68945"
         x="206.07112"
         id="tspan4386">a</tspan></text>
  </g>
  <g
     style="display:none"
     id="layer3">
    <g
       transform="translate(0,5.0000001e-6)"
       id="g4346">
      <path
         style="fill:none;fill-rule:evenodd;stroke:#c70000;stroke-width:1;stroke-linecap:butt;stroke-linejoin:miter;stroke-miterlimit:4;stroke-dasharray:1, 1;stroke-dashoffset:0;stroke-opacity:1"
         d="m 306.20249,407.00099 -22.22335,20.45559 42.30013,6.9448 z"
         id="path4290" />
      <path
         style="fill:none;fill-rule:evenodd;stroke:#c80000;stroke-width:1;stroke-linecap:butt;stroke-linejoin:miter;stroke-miterlimit:4;stroke-dasharray:1, 1;stroke-dashoffset:0;stroke-opacity:1"
         d="m 306.20249,407.00099 23.10724,-19.31916 -42.93148,-8.08122 -45.07806,-7.57615 -45.3306,-7.95494 22.60216,28.03172 -22.60216,19.82425 44.44672,8.08122 -21.84456,-27.90547 22.72844,-20.07678 21.33947,-20.20305 23.23351,27.7792 0,0.50508"
         id="path4292" />
      <path
         style="fill:none;fill-rule:evenodd;stroke:#c80000;stroke-width:1;stroke-linecap:butt;stroke-linejoin:miter;stroke-miterlimit:4;stroke-dasharray:1, 1;stroke-dashoffset:0;stroke-opacity:1"
         d="m 240.92138,420.00671 43.05776,7.44987 -24.36994,19.82425 z"
         id="path4294" />
      <path
         style="fill:none;fill-rule:evenodd;stroke:#c70000;stroke-width:1;stroke-linecap:butt;stroke-linejoin:miter;stroke-miterlimit:4;stroke-dasharray:1, 1;stroke-dashoffset:0;stroke-opacity:1"
         d="m 285.87317,379.85315 20.32932,27.14784 0,0 0,0 0,0"
         id="path4296" />
      <path
         style="fill:none;fill-rule:evenodd;stroke:#c90000;stroke-width:1;stroke-linecap:butt;stroke-linejoin:miter;stroke-miterlimit:4;stroke-dasharray:1, 1;stroke-dashoffset:0;stroke-opacity:1"
         d="m 326.27927,434.40138 19.1929,26.01143 21.71828,-21.2132 40.91118,-1.51523 -19.69797,-27.52665 20.07678,-30.80966 39.52221,-4.29315 -21.2132,-26.76904 2.02031,-32.32488 -37.50192,6.31345 -37.24938,-25.75889 -0.50507,-32.57742 -37.37564,7.57615 -45.96194,-9.09138 -1.26269,29.7995 -47.72971,21.59202 -44.95179,-8.96511 0,30.30458 -24.74874,21.2132 44.44671,7.70242 -20.70812,-29.92578 45.96194,-20.32931 45.20432,8.58629 2.52539,-30.17831 47.7297,-20.70812 37.37564,25.00127 -2.65164,30.05204 39.90102,-4.29315 35.48161,25.50635 -18.30901,31.56727 -39.90103,3.78808 19.82425,27.02158 -21.21321,29.04188 z"
         id="path4300" />
      <path
         style="fill:none;fill-rule:evenodd;stroke:#c70000;stroke-width:1;stroke-linecap:butt;stroke-linejoin:miter;stroke-miterlimit:4;stroke-dasharray:1, 1;stroke-dashoffset:0;stroke-opacity:1"
         d="m 263.64981,351.31634 2.77792,-28.91562 44.69925,9.21764 40.27984,-5.05076 -2.90419,29.29442 -19.1929,31.31473 39.26968,-4.0406 -20.07678,-26.76905 -36.36549,-24.74874 z"
         id="path4302" />
    </g>
  </g>
  <g
     style="display:none"
     id="layer5">
    <path
       id="path4359"
       d="M 128.79445,327.07268 319.71328,239.69448 466.94302,344.24527 389.91888,467.48388 218.69803,440.71484 Z"
       style="fill:#b7b7c8;fill-opacity:1;fill-rule:evenodd;stroke:none;stroke-width:1px;stroke-linecap:butt;stroke-linejoin:miter;stroke-opacity:1" />
  </g>
  <g
     style="display:inline"
     id="layer2">
    <path
       id="path4136"
       d="M 127.27922,327.07268 320.21836,240.19956 467.70063,344.24527 388.90873,468.49403 219.2031,441.21991 Z"
       style="fill:none;fill-rule:evenodd;stroke:#000000;stroke-width:1px;stroke-linecap:butt;stroke-linejoin:miter;stroke-opacity:1" />
    <path
       id="path4138"
       d="m 309.10668,361.41786 10.10152,-121.2183 1.01016,-1.01015 1.01015,1.01015"
       style="fill:none;fill-rule:evenodd;stroke:#000000;stroke-width:1px;stroke-linecap:butt;stroke-linejoin:miter;stroke-opacity:1" />
    <path
       id="path4140"
       d="m 219.2031,440.20976 89.3985,-80.30713 79.80205,108.08633"
       style="fill:none;fill-rule:evenodd;stroke:#010000;stroke-width:1px;stroke-linecap:butt;stroke-linejoin:miter;stroke-opacity:1" />
    <path
       id="path4144"
       d="m 127.27922,327.07268 182.83761,33.84011 157.07872,-17.1726 -0.50507,1.01016"
       style="fill:none;fill-rule:evenodd;stroke:#000000;stroke-width:1px;stroke-linecap:butt;stroke-linejoin:miter;stroke-opacity:1" />
    <path
       d="m 106.52033,208.35655 a 7.0710678,6.8185296 0 0 1 0.19799,9.44406 7.0710678,6.8185296 0 0 1 -9.777832,0.57245 7.0710678,6.8185296 0 0 1 -0.988337,-9.39779 7.0710678,6.8185296 0 0 1 9.697949,-1.33208"
       id="path4148"
       style="fill:none;fill-opacity:1;stroke:#000000;stroke-opacity:0" />
    <path
       d="m 127.97863,220.23328 a 13.131983,12.879445 0 0 1 0.3677,17.83878 13.131983,12.879445 0 0 1 -18.15884,1.08129 13.131983,12.879445 0 0 1 -1.83548,-17.75138 13.131983,12.879445 0 0 1 18.01047,-2.51614"
       id="path4150"
       style="fill:none;fill-opacity:1;stroke:#000000;stroke-opacity:0" />
    <path
       d="m 408.13753,217.59586 a 5.0507627,7.323606 0 0 1 0.14142,10.14362 5.0507627,7.323606 0 0 1 -6.98417,0.61485 5.0507627,7.323606 0 0 1 -0.70595,-10.09392 5.0507627,7.323606 0 0 1 6.9271,-1.43075"
       id="path4165"
       style="fill:none;fill-opacity:1;stroke:#000000;stroke-opacity:0" />
    <path
       inkscape:connector-curvature="0"
       d="m 314.18853,355.39058 a 7.1050883,7.1050883 0 0 1 0.19886,9.84098 7.1050883,7.1050883 0 0 1 -9.82489,0.59649 7.1050883,7.1050883 0 0 1 -0.99309,-9.79274 7.1050883,7.1050883 0 0 1 9.74462,-1.38805"
       id="path4383"
       style="fill:#ff0000;fill-opacity:1;stroke:#000000;stroke-width:0.2900486;stroke-opacity:0" />
    <path
       style="fill:#000000;fill-opacity:1;stroke:#000000;stroke-width:0.24544699;stroke-opacity:0"
       id="path4385"
       d="m 225.13139,437.23813 a 6.0125184,6.0125184 0 0 1 0.16829,8.3277 6.0125184,6.0125184 0 0 1 -8.31408,0.50478 6.0125184,6.0125184 0 0 1 -0.8404,-8.28689 6.0125184,6.0125184 0 0 1 8.24617,-1.17461"
       inkscape:connector-curvature="0" />
    <path
       inkscape:connector-curvature="0"
       d="m 325.46253,234.34626 a 6.0125184,6.0125184 0 0 1 0.16829,8.3277 6.0125184,6.0125184 0 0 1 -8.31408,0.50478 6.0125184,6.0125184 0 0 1 -0.8404,-8.28689 6.0125184,6.0125184 0 0 1 8.24617,-1.17461"
       id="path4270"
       style="fill:#000000;fill-opacity:1;stroke:#000000;stroke-width:0.24544699;stroke-opacity:0" />
    <path
       style="fill:#000000;fill-opacity:1;stroke:#000000;stroke-width:0.24544699;stroke-opacity:0"
       id="path4272"
       d="m 392.90736,464.55049 a 6.0125184,6.0125184 0 0 1 0.16829,8.3277 6.0125184,6.0125184 0 0 1 -8.31408,0.50478 6.0125184,6.0125184 0 0 1 -0.8404,-8.28689 6.0125184,6.0125184 0 0 1 8.24617,-1.17461"
       inkscape:connector-curvature="0" />
    <path
       inkscape:connector-curvature="0"
       d="m 470.3853,339.13656 a 6.0125184,6.0125184 0 0 1 0.16829,8.3277 6.0125184,6.0125184 0 0 1 -8.31408,0.50478 6.0125184,6.0125184 0 0 1 -0.8404,-8.28689 6.0125184,6.0125184 0 0 1 8.24617,-1.17461"
       id="path4274"
       style="fill:#000000;fill-opacity:1;stroke:#000000;stroke-width:0.24544699;stroke-opacity:0" />
    <path
       inkscape:connector-curvature="0"
       d="m 133.16118,322.41471 a 6.0125184,6.0125184 0 0 1 0.16829,8.3277 6.0125184,6.0125184 0 0 1 -8.31408,0.50478 6.0125184,6.0125184 0 0 1 -0.8404,-8.28689 6.0125184,6.0125184 0 0 1 8.24617,-1.17461"
       id="path4276"
       style="fill:#000000;fill-opacity:1;stroke:#000000;stroke-width:0.24544699;stroke-opacity:0" />
  </g>
  <g
     style="display:inline;fill:none"
     id="layer4">
    <path
       id="path4284"
       d="m 218.69802,343.99274 5.05077,-60.35662 90.40865,17.17259 79.80205,-8.5863 -5.3033,60.10408 39.64849,54.04316 -79.80205,7.57615 -44.44671,40.91117 -40.15357,-54.80078 -90.66119,-15.9099 45.45686,-40.15355 95.45942,-43.18403 74.49875,51.51778 -40.15356,61.61931 -84.60028,-13.88961 z"
       style="display:inline;fill:none;fill-rule:evenodd;stroke:#0000ff;stroke-width:1;stroke-linecap:butt;stroke-linejoin:miter;stroke-miterlimit:4;stroke-dasharray:none;stroke-dashoffset:0;stroke-opacity:1" />
  </g>
  <g
     id="g4226"
     transform="matrix(0.70804608,0,0,0.70804608,102.52859,101.30892)"
     inkscape:transform-center-x="10.046446"
     inkscape:transform-center-y="19.534768">
    <g
       id="content"
       transform="matrix(1.0629921,0,0,-1.0629921,-186.02362,789.27165)"
       xml:space="preserve"
       stroke-miterlimit="10.433"
       font-style="normal"
       font-variant="normal"
       font-weight="normal"
       font-stretch="normal"
       font-size-adjust="none"
       letter-spacing="normal"
       word-spacing="normal"
       style="font-style:normal;font-variant:normal;font-weight:normal;font-stretch:normal;letter-spacing:normal;word-spacing:normal;text-anchor:start;fill:none;fill-opacity:1;fill-rule:evenodd;stroke:#000000;stroke-linecap:butt;stroke-linejoin:miter;stroke-miterlimit:10.43299961;stroke-dasharray:none;stroke-dashoffset:0;stroke-opacity:1"><path
         d="m 474.16,410.04 0,-0.3 0.01,-0.31 0.01,-0.16 0.01,-0.16 0.02,-0.16 0.03,-0.16 0.04,-0.16 0.04,-0.16 0.05,-0.16 0.06,-0.16 0.08,-0.16 0.08,-0.15 0.1,-0.15 0.12,-0.15 0.13,-0.14 0.14,-0.14 0.16,-0.13 0.09,-0.06 0.09,-0.06 0.1,-0.06 0.1,-0.06 0.11,-0.06 0.11,-0.05 0.12,-0.05 0.12,-0.05 0.13,-0.05 0.13,-0.05 0.14,-0.04 0.15,-0.04 0.15,-0.04 0.15,-0.04 0.17,-0.03 0.17,-0.03 0.17,-0.03 0.18,-0.03 0.19,-0.02 0.2,-0.02 0.2,-0.02 0.21,-0.01 0.22,-0.02 0.22,0 0.23,-0.01 0.24,0 2.39,0 c 1,0 1.6,0 1.6,1.2 0,1.14 -0.64,1.14 -1.3,1.14 -3.03,0.05 -3.03,0.71 -3.03,1.85 l 0,10.7 c 0,4.44 -3.55,7.67 -10.97,7.67 -2.83,0 -8.91,-0.19 -8.91,-4.58 0,-2.18 1.74,-3.14 3.08,-3.14 1.55,0 3.14,1.05 3.14,3.14 0,1.5 -0.94,2.35 -1.09,2.44 1.39,0.3 2.98,0.36 3.59,0.36 3.74,0 5.47,-2.09 5.47,-5.89 l 0,-1.69 0,-1.54 0,-4.74 c 0,-4.78 -4.58,-5.42 -5.83,-5.42 -2.53,0 -4.53,1.73 -4.53,3.94 0,5.37 7.88,6.07 10.36,6.22 l 0,0 0,1.54 c -3.53,-0.15 -16.19,-0.59 -16.19,-7.83 0,-4.78 6.18,-5.67 9.61,-5.67 4,0 6.33,2.05 7.44,4.14 z"
         id="path4229"
         inkscape:connector-curvature="0"
         style="fill:#000000;stroke-width:0" /></g>  </g>
  <g
     transform="matrix(0.38784353,0,0,0.38784353,168.49248,351.09085)"
     id="g3418">
    <g
       id="g3563"
       transform="translate(-1.4371652,-10.060157)">
      <g
         word-spacing="normal"
         letter-spacing="normal"
         font-size-adjust="none"
         font-stretch="normal"
         font-weight="normal"
         font-variant="normal"
         font-style="normal"
         stroke-miterlimit="10.433"
         xml:space="preserve"
         transform="matrix(1.0629921,0,0,-1.0629921,-186.02362,789.27165)"
         id="g3565"
         style="font-style:normal;font-variant:normal;font-weight:normal;font-stretch:normal;letter-spacing:normal;word-spacing:normal;text-anchor:start;fill:none;fill-opacity:1;fill-rule:evenodd;stroke:#000000;stroke-linecap:butt;stroke-linejoin:miter;stroke-miterlimit:10.43299961;stroke-dasharray:none;stroke-dashoffset:0;stroke-opacity:1"><path
           id="path3567"
           d="m 482.47,436.59 0.04,0.15 0.04,0.14 0.03,0.14 0.04,0.13 0.03,0.12 0.04,0.12 0.04,0.11 0.04,0.11 0.04,0.1 0.04,0.09 0.05,0.09 0.05,0.08 0.06,0.08 0.06,0.07 0.07,0.07 0.08,0.06 0.08,0.06 0.09,0.05 0.09,0.05 0.11,0.04 0.11,0.04 0.13,0.04 0.13,0.03 0.07,0.01 0.08,0.02 0.07,0.01 0.08,0.01 0.08,0.01 0.09,0.01 0.09,0.01 0.09,0.01 0.09,0.01 0.1,0 0.1,0.01 0.11,0 0.1,0.01 0.11,0 0.12,0 0.12,0 0.12,0 0.13,0 c 0.79,0 1.34,0 1.34,0.96 0,0.43 -0.3,0.59 -0.69,0.59 -1.25,0 -4.28,-0.16 -5.53,-0.16 -1.64,0 -5.69,0.16 -7.33,0.16 -0.45,0 -1.04,0 -1.04,-1 0,-0.55 0.4,-0.55 1.7,-0.55 1.14,0 1.64,0 2.88,-0.09 1.2,-0.16 1.54,-0.31 1.54,-1 0,-0.3 -0.09,-0.66 -0.19,-1.05 l -5.73,-22.87 c -1.2,-4.83 -4.58,-7.47 -7.17,-7.47 -1.3,0 -3.94,0.5 -4.74,3.09 0.14,-0.04 0.5,-0.04 0.6,-0.04 1.94,0 3.23,1.68 3.23,3.18 0,1.6 -1.34,2.08 -2.19,2.08 -0.89,0 -3.34,-0.59 -3.34,-3.98 0,-3.08 2.64,-5.42 6.58,-5.42 4.59,0 9.76,3.28 11.01,8.21 z"
           inkscape:connector-curvature="0"
           style="fill:#000000;stroke-width:0" /><path
           id="path3569"
           d="m 536.07,422.5 0.14,0 0.14,0 0.15,0 0.07,0.01 0.07,0 0.08,0.01 0.07,0.01 0.07,0.01 0.07,0.01 0.07,0.01 0.06,0.02 0.07,0.02 0.06,0.02 0.06,0.02 0.06,0.03 0.05,0.03 0.06,0.04 0.05,0.03 0.04,0.05 0.05,0.04 0.04,0.05 0.02,0.03 0.01,0.03 0.02,0.02 0.02,0.03 0.01,0.03 0.01,0.04 0.01,0.03 0.02,0.04 0.01,0.03 0,0.04 0.01,0.04 0.01,0.04 0,0.04 0.01,0.04 0,0.04 0,0.05 c 0,1 -0.96,1 -1.64,1 l -29.85,0 c -0.7,0 -1.64,0 -1.64,-1 0,-0.98 0.94,-0.98 1.69,-0.98 z"
           inkscape:connector-curvature="0"
           style="fill:#000000;stroke-width:0" /><path
           id="path3571"
           d="m 536.12,412.82 0.06,0 0.07,0 0.14,0.01 0.13,0 0.07,0 0.07,0.01 0.07,0.01 0.07,0 0.07,0.01 0.07,0.02 0.07,0.01 0.06,0.02 0.06,0.02 0.07,0.02 0.06,0.02 0.05,0.03 0.06,0.03 0.05,0.04 0.05,0.04 0.05,0.04 0.04,0.05 0.02,0.02 0.02,0.03 0.02,0.02 0.01,0.03 0.02,0.03 0.02,0.03 0.01,0.03 0.01,0.03 0.01,0.04 0.02,0.03 0.01,0.04 0,0.04 0.01,0.04 0.01,0.04 0,0.04 0.01,0.04 0,0.05 0,0.04 c 0,1 -0.96,1 -1.69,1 l -29.75,0 c -0.75,0 -1.69,0 -1.69,-1 0,-1 0.94,-1 1.64,-1 z"
           inkscape:connector-curvature="0"
           style="fill:#000000;stroke-width:0" /><path
           id="path3573"
           d="m 560.72,410.04 5.28,5.13 c 7.77,6.87 10.77,9.56 10.77,14.54 0,5.69 -4.49,9.68 -10.56,9.68 -5.64,0 -9.33,-4.6 -9.33,-9.03 0,-2.79 2.5,-2.79 2.64,-2.79 0.86,0 2.59,0.6 2.59,2.64 0,1.3 -0.89,2.6 -2.64,2.6 -0.39,0 -0.5,0 -0.64,-0.05 1.14,3.24 3.83,5.08 6.72,5.08 4.53,0 6.69,-4.05 6.69,-8.13 0,-3.98 -2.5,-7.92 -5.24,-11.01 l -9.56,-10.66 c -0.56,-0.54 -0.56,-0.64 -0.56,-1.84 l 18.48,0 1.41,8.67 -1.25,0 c -0.25,-1.5 -0.59,-3.69 -1.09,-4.44 -0.36,-0.39 -3.65,-0.39 -4.74,-0.39 z"
           inkscape:connector-curvature="0"
           style="fill:#000000;stroke-width:0" /></g>    </g>
  </g>
</svg>
