<?xml version="1.0" encoding="UTF-8" standalone="no"?>
<!-- Created with Inkscape (http://www.inkscape.org/) -->

<svg
   xmlns:dc="http://purl.org/dc/elements/1.1/"
   xmlns:cc="http://creativecommons.org/ns#"
   xmlns:rdf="http://www.w3.org/1999/02/22-rdf-syntax-ns#"
   xmlns:svg="http://www.w3.org/2000/svg"
   xmlns="http://www.w3.org/2000/svg"
   xmlns:sodipodi="http://sodipodi.sourceforge.net/DTD/sodipodi-0.dtd"
   xmlns:inkscape="http://www.inkscape.org/namespaces/inkscape"
   id="svg2"
   version="1.1"
   inkscape:version="0.91 r13725"
   xml:space="preserve"
   width="426.36145"
   height="344.59134"
   viewBox="0 0 426.36145 344.59134"
   sodipodi:docname="HHO_P1_P0.svg"><metadata
     id="metadata8"><rdf:RDF><cc:Work
         rdf:about=""><dc:format>image/svg+xml</dc:format><dc:type
           rdf:resource="http://purl.org/dc/dcmitype/StillImage" /><dc:title></dc:title></cc:Work></rdf:RDF></metadata><defs
     id="defs6"><clipPath
       clipPathUnits="userSpaceOnUse"
       id="clipPath18"><path
         d="m -13.527,283.427 365.812,0 c 2.188,0 3.949,-1.762 3.949,-3.949 l 0,-275.528 c 0,-2.187 -1.761,-3.949 -3.949,-3.949 l -365.812,0 c -2.192,0 -3.953,1.762 -3.953,3.949 l 0,275.528 c 0,2.187 1.761,3.949 3.953,3.949 z"
         id="path20"
         inkscape:connector-curvature="0" /></clipPath><clipPath
       clipPathUnits="userSpaceOnUse"
       id="clipPath28"><path
         d="M 0,7 342,7 342,225 0,225 0,7 Z"
         id="path30"
         inkscape:connector-curvature="0" /></clipPath><clipPath
       clipPathUnits="userSpaceOnUse"
       id="clipPath42"><path
         d="m 152,20.673 21,0 0,-21 -21,0 0,21 z"
         id="path44"
         inkscape:connector-curvature="0" /></clipPath><clipPath
       clipPathUnits="userSpaceOnUse"
       id="clipPath48"><path
         d="m -13.527,283.427 365.812,0 c 2.188,0 3.949,-1.762 3.949,-3.949 l 0,-275.528 c 0,-2.187 -1.761,-3.949 -3.949,-3.949 l -365.812,0 c -2.192,0 -3.953,1.762 -3.953,3.949 l 0,275.528 c 0,2.187 1.761,3.949 3.953,3.949 z"
         id="path50"
         inkscape:connector-curvature="0" /></clipPath><clipPath
       clipPathUnits="userSpaceOnUse"
       id="clipPath56"><path
         d="m 152,-0.326935 21,0 0,21 -21,0 0,-21 z"
         id="path58"
         inkscape:connector-curvature="0" /></clipPath><mask
       maskUnits="userSpaceOnUse"
       x="0"
       y="0"
       width="1"
       height="1"
       id="mask60"><g
         id="g62"><g
           clip-path="url(#clipPath56)"
           id="g64"><path
             d="m 152,-0.326935 21,0 0,21 -21,0 0,-21 z"
             style="fill:#000000;fill-opacity:0.98999999;fill-rule:nonzero;stroke:none"
             id="path66"
             inkscape:connector-curvature="0" /></g></g></mask><clipPath
       clipPathUnits="userSpaceOnUse"
       id="clipPath72"><path
         d="m 152,-0.326935 21,0 0,21 -21,0 0,-21 z"
         id="path74"
         inkscape:connector-curvature="0" /></clipPath><clipPath
       clipPathUnits="userSpaceOnUse"
       id="clipPath76"><path
         d="m 152,0 21,0 0,21 -21,0 0,-21 z"
         id="path78"
         inkscape:connector-curvature="0" /></clipPath><clipPath
       clipPathUnits="userSpaceOnUse"
       id="clipPath98"><path
         d="m 69,126.673 20,0 0,-22 -20,0 0,22 z"
         id="path100"
         inkscape:connector-curvature="0" /></clipPath><clipPath
       clipPathUnits="userSpaceOnUse"
       id="clipPath104"><path
         d="m -13.527,283.427 365.812,0 c 2.188,0 3.949,-1.762 3.949,-3.949 l 0,-275.528 c 0,-2.187 -1.761,-3.949 -3.949,-3.949 l -365.812,0 c -2.192,0 -3.953,1.762 -3.953,3.949 l 0,275.528 c 0,2.187 1.761,3.949 3.953,3.949 z"
         id="path106"
         inkscape:connector-curvature="0" /></clipPath><clipPath
       clipPathUnits="userSpaceOnUse"
       id="clipPath112"><path
         d="m 69,104.67306 20,0 0,22 -20,0 0,-22 z"
         id="path114"
         inkscape:connector-curvature="0" /></clipPath><mask
       maskUnits="userSpaceOnUse"
       x="0"
       y="0"
       width="1"
       height="1"
       id="mask116"><g
         id="g118"><g
           clip-path="url(#clipPath112)"
           id="g120"><path
             d="m 69,104.67306 20,0 0,22 -20,0 0,-22 z"
             style="fill:#000000;fill-opacity:0.98999999;fill-rule:nonzero;stroke:none"
             id="path122"
             inkscape:connector-curvature="0" /></g></g></mask><clipPath
       clipPathUnits="userSpaceOnUse"
       id="clipPath128"><path
         d="m 69,104.67306 20,0 0,22 -20,0 0,-22 z"
         id="path130"
         inkscape:connector-curvature="0" /></clipPath><clipPath
       clipPathUnits="userSpaceOnUse"
       id="clipPath132"><path
         d="m 69,105 20,0 0,22 -20,0 0,-22 z"
         id="path134"
         inkscape:connector-curvature="0" /></clipPath><clipPath
       clipPathUnits="userSpaceOnUse"
       id="clipPath154"><path
         d="m 236,132.673 20,0 0,-21 -20,0 0,21 z"
         id="path156"
         inkscape:connector-curvature="0" /></clipPath><clipPath
       clipPathUnits="userSpaceOnUse"
       id="clipPath160"><path
         d="m -13.527,283.427 365.812,0 c 2.188,0 3.949,-1.762 3.949,-3.949 l 0,-275.528 c 0,-2.187 -1.761,-3.949 -3.949,-3.949 l -365.812,0 c -2.192,0 -3.953,1.762 -3.953,3.949 l 0,275.528 c 0,2.187 1.761,3.949 3.953,3.949 z"
         id="path162"
         inkscape:connector-curvature="0" /></clipPath><clipPath
       clipPathUnits="userSpaceOnUse"
       id="clipPath168"><path
         d="m 236,111.67306 20,0 0,21 -20,0 0,-21 z"
         id="path170"
         inkscape:connector-curvature="0" /></clipPath><mask
       maskUnits="userSpaceOnUse"
       x="0"
       y="0"
       width="1"
       height="1"
       id="mask172"><g
         id="g174"><g
           clip-path="url(#clipPath168)"
           id="g176"><path
             d="m 236,111.67306 20,0 0,21 -20,0 0,-21 z"
             style="fill:#000000;fill-opacity:0.98999999;fill-rule:nonzero;stroke:none"
             id="path178"
             inkscape:connector-curvature="0" /></g></g></mask><clipPath
       clipPathUnits="userSpaceOnUse"
       id="clipPath184"><path
         d="m 236,111.67306 20,0 0,21 -20,0 0,-21 z"
         id="path186"
         inkscape:connector-curvature="0" /></clipPath><clipPath
       clipPathUnits="userSpaceOnUse"
       id="clipPath188"><path
         d="m 236,112 20,0 0,21 -20,0 0,-21 z"
         id="path190"
         inkscape:connector-curvature="0" /></clipPath><clipPath
       clipPathUnits="userSpaceOnUse"
       id="clipPath210"><path
         d="m 133,123.673 20,0 0,-21 -20,0 0,21 z"
         id="path212"
         inkscape:connector-curvature="0" /></clipPath><clipPath
       clipPathUnits="userSpaceOnUse"
       id="clipPath216"><path
         d="m -13.527,283.427 365.812,0 c 2.188,0 3.949,-1.762 3.949,-3.949 l 0,-275.528 c 0,-2.187 -1.761,-3.949 -3.949,-3.949 l -365.812,0 c -2.192,0 -3.953,1.762 -3.953,3.949 l 0,275.528 c 0,2.187 1.761,3.949 3.953,3.949 z"
         id="path218"
         inkscape:connector-curvature="0" /></clipPath><clipPath
       clipPathUnits="userSpaceOnUse"
       id="clipPath224"><path
         d="m 133,102.67306 20,0 0,21 -20,0 0,-21 z"
         id="path226"
         inkscape:connector-curvature="0" /></clipPath><mask
       maskUnits="userSpaceOnUse"
       x="0"
       y="0"
       width="1"
       height="1"
       id="mask228"><g
         id="g230"><g
           clip-path="url(#clipPath224)"
           id="g232"><path
             d="m 133,102.67306 20,0 0,21 -20,0 0,-21 z"
             style="fill:#000000;fill-opacity:0.98999999;fill-rule:nonzero;stroke:none"
             id="path234"
             inkscape:connector-curvature="0" /></g></g></mask><clipPath
       clipPathUnits="userSpaceOnUse"
       id="clipPath240"><path
         d="m 133,102.67306 20,0 0,21 -20,0 0,-21 z"
         id="path242"
         inkscape:connector-curvature="0" /></clipPath><clipPath
       clipPathUnits="userSpaceOnUse"
       id="clipPath244"><path
         d="m 133,103 20,0 0,21 -20,0 0,-21 z"
         id="path246"
         inkscape:connector-curvature="0" /></clipPath><clipPath
       clipPathUnits="userSpaceOnUse"
       id="clipPath266"><path
         d="m 169,123.673 21,0 0,-21 -21,0 0,21 z"
         id="path268"
         inkscape:connector-curvature="0" /></clipPath><clipPath
       clipPathUnits="userSpaceOnUse"
       id="clipPath272"><path
         d="m -13.527,283.427 365.812,0 c 2.188,0 3.949,-1.762 3.949,-3.949 l 0,-275.528 c 0,-2.187 -1.761,-3.949 -3.949,-3.949 l -365.812,0 c -2.192,0 -3.953,1.762 -3.953,3.949 l 0,275.528 c 0,2.187 1.761,3.949 3.953,3.949 z"
         id="path274"
         inkscape:connector-curvature="0" /></clipPath><clipPath
       clipPathUnits="userSpaceOnUse"
       id="clipPath280"><path
         d="m 169,102.67306 21,0 0,21 -21,0 0,-21 z"
         id="path282"
         inkscape:connector-curvature="0" /></clipPath><mask
       maskUnits="userSpaceOnUse"
       x="0"
       y="0"
       width="1"
       height="1"
       id="mask284"><g
         id="g286"><g
           clip-path="url(#clipPath280)"
           id="g288"><path
             d="m 169,102.67306 21,0 0,21 -21,0 0,-21 z"
             style="fill:#000000;fill-opacity:0.98999999;fill-rule:nonzero;stroke:none"
             id="path290"
             inkscape:connector-curvature="0" /></g></g></mask><clipPath
       clipPathUnits="userSpaceOnUse"
       id="clipPath296"><path
         d="m 169,102.67306 21,0 0,21 -21,0 0,-21 z"
         id="path298"
         inkscape:connector-curvature="0" /></clipPath><clipPath
       clipPathUnits="userSpaceOnUse"
       id="clipPath300"><path
         d="m 169,103 21,0 0,21 -21,0 0,-21 z"
         id="path302"
         inkscape:connector-curvature="0" /></clipPath><clipPath
       clipPathUnits="userSpaceOnUse"
       id="clipPath322"><path
         d="m 152,76.673 21,0 0,-21 -21,0 0,21 z"
         id="path324"
         inkscape:connector-curvature="0" /></clipPath><clipPath
       clipPathUnits="userSpaceOnUse"
       id="clipPath328"><path
         d="m -13.527,283.427 365.812,0 c 2.188,0 3.949,-1.762 3.949,-3.949 l 0,-275.528 c 0,-2.187 -1.761,-3.949 -3.949,-3.949 l -365.812,0 c -2.192,0 -3.953,1.762 -3.953,3.949 l 0,275.528 c 0,2.187 1.761,3.949 3.953,3.949 z"
         id="path330"
         inkscape:connector-curvature="0" /></clipPath><clipPath
       clipPathUnits="userSpaceOnUse"
       id="clipPath336"><path
         d="m 152,55.673065 21,0 0,21 -21,0 0,-21 z"
         id="path338"
         inkscape:connector-curvature="0" /></clipPath><mask
       maskUnits="userSpaceOnUse"
       x="0"
       y="0"
       width="1"
       height="1"
       id="mask340"><g
         id="g342"><g
           clip-path="url(#clipPath336)"
           id="g344"><path
             d="m 152,55.673065 21,0 0,21 -21,0 0,-21 z"
             style="fill:#000000;fill-opacity:0.98999999;fill-rule:nonzero;stroke:none"
             id="path346"
             inkscape:connector-curvature="0" /></g></g></mask><clipPath
       clipPathUnits="userSpaceOnUse"
       id="clipPath352"><path
         d="m 152,55.673065 21,0 0,21 -21,0 0,-21 z"
         id="path354"
         inkscape:connector-curvature="0" /></clipPath><clipPath
       clipPathUnits="userSpaceOnUse"
       id="clipPath356"><path
         d="m 152,56 21,0 0,21 -21,0 0,-21 z"
         id="path358"
         inkscape:connector-curvature="0" /></clipPath><clipPath
       clipPathUnits="userSpaceOnUse"
       id="clipPath378"><path
         d="m -13.527,283.427 365.812,0 c 2.188,0 3.949,-1.762 3.949,-3.949 l 0,-275.528 c 0,-2.187 -1.761,-3.949 -3.949,-3.949 l -365.812,0 c -2.192,0 -3.953,1.762 -3.953,3.949 l 0,275.528 c 0,2.187 1.761,3.949 3.953,3.949 z"
         id="path380"
         inkscape:connector-curvature="0" /></clipPath><clipPath
       clipPathUnits="userSpaceOnUse"
       id="clipPath388"><path
         d="m 67,243 209,0 0,33 -209,0 0,-33 z"
         id="path390"
         inkscape:connector-curvature="0" /></clipPath><clipPath
       id="clipPath4234"
       clipPathUnits="userSpaceOnUse"><rect
         ry="4.9370799"
         y="99.505043"
         x="94.285713"
         height="354.28571"
         width="467.14285"
         id="rect4236"
         style="opacity:0.98999999;fill:#0000ff;fill-opacity:1;stroke:none;stroke-width:1;stroke-miterlimit:4;stroke-dasharray:none;stroke-dashoffset:0;stroke-opacity:0" /></clipPath></defs><sodipodi:namedview
     pagecolor="#ffffff"
     bordercolor="#666666"
     borderopacity="1"
     objecttolerance="10"
     gridtolerance="10"
     guidetolerance="10"
     inkscape:pageopacity="0"
     inkscape:pageshadow="2"
     inkscape:window-width="1615"
     inkscape:window-height="1026"
     id="namedview4"
     showgrid="false"
     inkscape:zoom="0.68486922"
     inkscape:cx="213.18073"
     inkscape:cy="172.29567"
     inkscape:window-x="65"
     inkscape:window-y="24"
     inkscape:window-maximized="1"
     inkscape:current-layer="g374" /><g
     id="g10"
     inkscape:groupmode="layer"
     inkscape:label="HHO_P1_P0"
     transform="matrix(1.25,0,0,-1.25,0,344.59133)"><g
       id="g12" /><g
       id="g14"><g
         id="g16"
         clip-path="url(#clipPath18)"><g
           id="g22"
           transform="translate(0,-0.326935)"><g
             id="g24"><g
               id="g26"
               clip-path="url(#clipPath28)"><g
                 id="g32"><g
                   id="g34"
                   transform="matrix(1,0,0,-1,0,276)"><path
                     d="M 164.234,51.672 0.809,261.957 l 339.425,5.715 -176,-216 z"
                     style="fill:none;stroke:#000000;stroke-width:0.80000001;stroke-linecap:butt;stroke-linejoin:miter;stroke-miterlimit:4;stroke-dasharray:none;stroke-opacity:1"
                     id="path36"
                     inkscape:connector-curvature="0" /></g></g></g></g></g></g></g><g
       id="g38"><g
         id="g40"
         clip-path="url(#clipPath42)"><g
           id="g46"
           clip-path="url(#clipPath48)"><g
             id="g52"><g
               id="g54" /><g
               id="g68"
               mask="url(#mask60)"><g
                 id="g70" /><g
                 id="g80"><g
                   clip-path="url(#clipPath72)"
                   id="g82"><g
                     transform="translate(0,-0.326935)"
                     id="g84"><g
                       id="g86"><g
                         clip-path="url(#clipPath76)"
                         id="g88"><g
                           id="g90"><path
                             d="m 169.391,17.887 c 3.683,-3.903 3.804,-10.192 0.273,-14.246 -3.535,-4.059 -9.465,-4.438 -13.434,-0.864 -3.972,3.575 -4.57,9.828 -1.359,14.176 3.215,4.344 9.094,5.231 13.324,2.008"
                             style="fill:#d40000;fill-opacity:1;fill-rule:nonzero;stroke:none"
                             id="path92"
                             inkscape:connector-curvature="0" /></g></g></g></g></g></g></g></g></g></g></g><g
       id="g94"><g
         id="g96"
         clip-path="url(#clipPath98)"><g
           id="g102"
           clip-path="url(#clipPath104)"><g
             id="g108"><g
               id="g110" /><g
               id="g124"
               mask="url(#mask116)"><g
                 id="g126" /><g
                 id="g136"><g
                   clip-path="url(#clipPath128)"
                   id="g138"><g
                     transform="translate(0,-0.326935)"
                     id="g140"><g
                       id="g142"><g
                         clip-path="url(#clipPath132)"
                         id="g144"><g
                           id="g146"><path
                             d="m 85.961,123.027 c 3.687,-3.902 3.805,-10.187 0.273,-14.246 -3.535,-4.054 -9.461,-4.437 -13.433,-0.863 -3.973,3.574 -4.571,9.832 -1.36,14.176 3.215,4.347 9.094,5.234 13.325,2.011"
                             style="fill:#d40000;fill-opacity:1;fill-rule:nonzero;stroke:none"
                             id="path148"
                             inkscape:connector-curvature="0" /></g></g></g></g></g></g></g></g></g></g></g><g
       id="g150"><g
         id="g152"
         clip-path="url(#clipPath154)"><g
           id="g158"
           clip-path="url(#clipPath160)"><g
             id="g164"><g
               id="g166" /><g
               id="g180"
               mask="url(#mask172)"><g
                 id="g182" /><g
                 id="g192"><g
                   clip-path="url(#clipPath184)"
                   id="g194"><g
                     transform="translate(0,-0.326935)"
                     id="g196"><g
                       id="g198"><g
                         clip-path="url(#clipPath188)"
                         id="g200"><g
                           id="g202"><path
                             d="m 252.82,129.887 c 3.684,-3.903 3.805,-10.192 0.27,-14.246 -3.531,-4.059 -9.461,-4.438 -13.434,-0.864 -3.968,3.575 -4.57,9.828 -1.355,14.176 3.211,4.344 9.09,5.231 13.324,2.008"
                             style="fill:#d40000;fill-opacity:1;fill-rule:nonzero;stroke:none"
                             id="path204"
                             inkscape:connector-curvature="0" /></g></g></g></g></g></g></g></g></g></g></g><g
       id="g206"><g
         id="g208"
         clip-path="url(#clipPath210)"><g
           id="g214"
           clip-path="url(#clipPath216)"><g
             id="g220"><g
               id="g222" /><g
               id="g236"
               mask="url(#mask228)"><g
                 id="g238" /><g
                 id="g248"><g
                   clip-path="url(#clipPath240)"
                   id="g250"><g
                     transform="translate(0,-0.326935)"
                     id="g252"><g
                       id="g254"><g
                         clip-path="url(#clipPath244)"
                         id="g256"><g
                           id="g258"><path
                             d="m 149.961,120.742 c 3.687,-3.902 3.805,-10.187 0.273,-14.246 -3.535,-4.055 -9.461,-4.437 -13.433,-0.863 -3.973,3.574 -4.571,9.832 -1.36,14.176 3.215,4.347 9.094,5.234 13.325,2.011"
                             style="fill:#0000ff;fill-opacity:1;fill-rule:nonzero;stroke:none"
                             id="path260"
                             inkscape:connector-curvature="0" /></g></g></g></g></g></g></g></g></g></g></g><g
       id="g262"><g
         id="g264"
         clip-path="url(#clipPath266)"><g
           id="g270"
           clip-path="url(#clipPath272)"><g
             id="g276"><g
               id="g278" /><g
               id="g292"
               mask="url(#mask284)"><g
                 id="g294" /><g
                 id="g304"><g
                   clip-path="url(#clipPath296)"
                   id="g306"><g
                     transform="translate(0,-0.326935)"
                     id="g308"><g
                       id="g310"><g
                         clip-path="url(#clipPath300)"
                         id="g312"><g
                           id="g314"><path
                             d="m 186.531,120.742 c 3.688,-3.902 3.809,-10.187 0.274,-14.246 -3.535,-4.055 -9.461,-4.437 -13.434,-0.863 -3.969,3.574 -4.57,9.832 -1.355,14.176 3.211,4.347 9.089,5.234 13.32,2.011"
                             style="fill:#0000ff;fill-opacity:1;fill-rule:nonzero;stroke:none"
                             id="path316"
                             inkscape:connector-curvature="0" /></g></g></g></g></g></g></g></g></g></g></g><g
       id="g318"><g
         id="g320"
         clip-path="url(#clipPath322)"><g
           id="g326"
           clip-path="url(#clipPath328)"><g
             id="g332"><g
               id="g334" /><g
               id="g348"
               mask="url(#mask340)"><g
                 id="g350" /><g
                 id="g360"><g
                   clip-path="url(#clipPath352)"
                   id="g362"><g
                     transform="translate(0,-0.326935)"
                     id="g364"><g
                       id="g366"><g
                         clip-path="url(#clipPath356)"
                         id="g368"><g
                           id="g370"><path
                             d="m 169.391,73.887 c 3.683,-3.903 3.804,-10.192 0.273,-14.246 -3.535,-4.059 -9.465,-4.438 -13.434,-0.864 -3.972,3.575 -4.57,9.828 -1.359,14.176 3.215,4.344 9.094,5.231 13.324,2.008"
                             style="fill:#0000ff;fill-opacity:1;fill-rule:nonzero;stroke:none"
                             id="path372"
                             inkscape:connector-curvature="0" /></g></g></g></g></g></g></g></g></g></g></g><g
       id="g374"><path
         transform="matrix(0.8,0,0,-0.8,-87.714289,357.55752)"
         style="opacity:0.98999999;fill:#d40000;fill-opacity:1;stroke:none;stroke-width:1;stroke-miterlimit:4;stroke-dasharray:none;stroke-dashoffset:0;stroke-opacity:0"
         id="path4273"
         sodipodi:type="arc"
         sodipodi:cx="423.57141"
         sodipodi:cy="300.93362"
         sodipodi:rx="12.142858"
         sodipodi:ry="12.857142"
         sodipodi:start="5.4977871"
         sodipodi:end="5.3360824"
         sodipodi:open="true"
         d="m 432.15771,291.84225 a 12.142858,12.857142 0 0 1 0.34,17.80789 12.142858,12.857142 0 0 1 -16.79108,1.07942 12.142858,12.857142 0 0 1 -1.69723,-17.72064 12.142858,12.857142 0 0 1 16.65389,-2.51178"
         clip-path="url(#clipPath4234)" /><path
         transform="matrix(0.8,0,0,-0.8,-174.15416,254.76417)"
         style="opacity:0.98999999;fill:#d40000;fill-opacity:1;stroke:none;stroke-width:1;stroke-miterlimit:4;stroke-dasharray:none;stroke-dashoffset:0;stroke-opacity:0"
         id="path4613"
         sodipodi:type="arc"
         sodipodi:cx="423.57141"
         sodipodi:cy="300.93362"
         sodipodi:rx="12.142858"
         sodipodi:ry="12.857142"
         sodipodi:start="5.4977871"
         sodipodi:end="5.3360824"
         sodipodi:open="true"
         d="m 432.15771,291.84225 a 12.142858,12.857142 0 0 1 0.34,17.80789 12.142858,12.857142 0 0 1 -16.79108,1.07942 12.142858,12.857142 0 0 1 -1.69723,-17.72064 12.142858,12.857142 0 0 1 16.65389,-2.51178"
         clip-path="url(#clipPath4234)" /><path
         transform="matrix(0.8,0,0,-0.8,-254.75349,292.14358)"
         style="opacity:0.98999999;fill:#0000ff;fill-opacity:1;stroke:none;stroke-width:1;stroke-miterlimit:4;stroke-dasharray:none;stroke-dashoffset:0;stroke-opacity:0"
         id="path4621"
         sodipodi:type="arc"
         sodipodi:cx="423.57141"
         sodipodi:cy="300.93362"
         sodipodi:rx="12.142858"
         sodipodi:ry="12.857142"
         sodipodi:start="5.4977871"
         sodipodi:end="5.3360824"
         sodipodi:open="true"
         d="m 432.15771,291.84225 a 12.142858,12.857142 0 0 1 0.34,17.80789 12.142858,12.857142 0 0 1 -16.79108,1.07942 12.142858,12.857142 0 0 1 -1.69723,-17.72064 12.142858,12.857142 0 0 1 16.65389,-2.51178"
         clip-path="url(#clipPath4234)" /><path
         clip-path="url(#clipPath4234)"
         d="m 432.15771,291.84225 a 12.142858,12.857142 0 0 1 0.34,17.80789 12.142858,12.857142 0 0 1 -16.79108,1.07942 12.142858,12.857142 0 0 1 -1.69723,-17.72064 12.142858,12.857142 0 0 1 16.65389,-2.51178"
         sodipodi:open="true"
         sodipodi:end="5.3360824"
         sodipodi:start="5.4977871"
         sodipodi:ry="12.857142"
         sodipodi:rx="12.142858"
         sodipodi:cy="300.93362"
         sodipodi:cx="423.57141"
         sodipodi:type="arc"
         id="path4623"
         style="opacity:0.98999999;fill:#0000ff;fill-opacity:1;stroke:none;stroke-width:1;stroke-miterlimit:4;stroke-dasharray:none;stroke-dashoffset:0;stroke-opacity:0"
         transform="matrix(0.8,0,0,-0.8,-95.891026,287.47115)" /><path
         clip-path="url(#clipPath4234)"
         d="m 432.15771,291.84225 a 12.142858,12.857142 0 0 1 0.34,17.80789 12.142858,12.857142 0 0 1 -16.79108,1.07942 12.142858,12.857142 0 0 1 -1.69723,-17.72064 12.142858,12.857142 0 0 1 16.65389,-2.51178"
         sodipodi:open="true"
         sodipodi:end="5.3360824"
         sodipodi:start="5.4977871"
         sodipodi:ry="12.857142"
         sodipodi:rx="12.142858"
         sodipodi:cy="300.93362"
         sodipodi:cx="423.57141"
         sodipodi:type="arc"
         id="path4625"
         style="opacity:0.98999999;fill:#0000ff;fill-opacity:1;stroke:none;stroke-width:1;stroke-miterlimit:4;stroke-dasharray:none;stroke-dashoffset:0;stroke-opacity:0"
         transform="matrix(0.8,0,0,-0.8,-182.3309,382.08775)" /><path
         transform="matrix(0.8,0,0,-0.8,-260.59401,355.22131)"
         style="opacity:0.98999999;fill:#d40000;fill-opacity:1;stroke:none;stroke-width:1;stroke-miterlimit:4;stroke-dasharray:none;stroke-dashoffset:0;stroke-opacity:0"
         id="path4652"
         sodipodi:type="arc"
         sodipodi:cx="423.57141"
         sodipodi:cy="300.93362"
         sodipodi:rx="12.142858"
         sodipodi:ry="12.857142"
         sodipodi:start="5.4977871"
         sodipodi:end="5.3360824"
         sodipodi:open="true"
         d="m 432.15771,291.84225 a 12.142858,12.857142 0 0 1 0.34,17.80789 12.142858,12.857142 0 0 1 -16.79108,1.07942 12.142858,12.857142 0 0 1 -1.69723,-17.72064 12.142858,12.857142 0 0 1 16.65389,-2.51178"
         clip-path="url(#clipPath4234)" /><g
         id="g4414"
         transform="matrix(0.71175387,0,0,-0.71175387,-171.49163,486.81548)"><g
           word-spacing="normal"
           letter-spacing="normal"
           font-size-adjust="none"
           font-stretch="normal"
           font-weight="normal"
           font-variant="normal"
           font-style="normal"
           stroke-miterlimit="10.433"
           xml:space="preserve"
           transform="matrix(1.0629921,0,0,-1.0629921,-186.02362,789.27165)"
           id="g4416"
           style="font-style:normal;font-variant:normal;font-weight:normal;font-stretch:normal;letter-spacing:normal;word-spacing:normal;text-anchor:start;fill:none;fill-opacity:1;fill-rule:evenodd;stroke:#000000;stroke-linecap:butt;stroke-linejoin:miter;stroke-miterlimit:10.43299961;stroke-dasharray:none;stroke-dashoffset:0;stroke-opacity:1"><path
             id="path4418"
             d="m 468.57,421.54 0.01,0 0.01,0 0.01,0 0.01,0 0.02,0 0.01,0 0.04,0 0.04,0 0.04,0 0.04,0 0.05,0 0.05,0 0.05,0 0.05,0 0.06,0 0.11,0 0.11,0 0.11,-0.01 0.05,0 0.06,0 0.05,0 0.05,0 0.04,0 0.05,-0.01 0.04,0 0.04,0 0.03,-0.01 0.02,0 0.01,0 0.02,0 0.01,0 0.01,0 0.01,-0.01 0.01,0 0.01,0 0,0 0.01,0 1.7,0 c 10.11,0 13.75,4.73 13.75,9.46 0,7.07 -6.37,9.36 -12.81,9.36 l -14.55,0 c -0.89,0 -1.68,0 -1.68,-0.89 0,-0.84 0.95,-0.84 1.34,-0.84 2.59,0 2.8,-0.41 2.8,-2.84 l 0,-24.97 1.73,-0.1 0,25.16 c 0,0.66 0,1.84 -0.39,2.75 l 5.67,0 c -0.64,-0.8 -0.64,-1.8 -0.64,-2.55 l 1.74,-0.15 c 0,1 0,2.7 3,2.7 3.57,0 5.23,-1.36 5.23,-7.58 l 1.74,0 c 0,2.64 -0.25,5.28 -1.55,7.13 2.75,-0.66 6.62,-2.14 6.62,-7.18 0,-3.48 -2.23,-6.03 -6.81,-7.17 l 0,0 c 1.59,2.08 1.74,5.22 1.74,7.22 l -1.74,0 c 0,-7.12 -2.64,-7.72 -5.73,-7.72 l -2.5,0 0,12.6 -1.74,0.15 0,-25.36 c 0,-0.5 0,-1.84 0.39,-2.73 l -5.42,0 c 0.39,0.89 0.39,2.09 0.39,2.73 l -1.73,0.1 c 0,-2.44 -0.21,-2.83 -2.75,-2.83 -0.5,0 -1.39,0 -1.39,-0.86 0,-0.89 0.79,-0.89 1.68,-0.89 l 13.36,0 c 0.89,0 1.64,0 1.64,0.89 0,0.86 -0.84,0.86 -1.39,0.86 -2.84,0 -3.04,0.39 -3.04,2.83 z"
             inkscape:connector-curvature="0"
             style="fill:#000000;stroke-width:0" /><path
             id="path4420"
             d="m 497.67,420.92 0,0.04 0,0.04 0,0.05 0,0.04 0,0.03 0,0.04 0,0.04 0,0.03 0,0.04 -0.01,0.03 0,0.03 0,0.03 0,0.03 -0.01,0.03 0,0.03 0,0.02 -0.01,0.03 0,0.02 -0.01,0.03 0,0.02 -0.02,0.04 -0.01,0.04 -0.02,0.03 -0.02,0.03 -0.02,0.03 -0.02,0.03 -0.03,0.02 -0.03,0.02 -0.03,0.02 -0.04,0.01 -0.04,0.01 -0.05,0.02 -0.02,0 -0.02,0 -0.03,0.01 -0.03,0 -0.02,0.01 -0.03,0 -0.03,0 -0.03,0 -0.03,0 -0.04,0.01 -0.03,0 -0.04,0 -0.03,0 -0.04,0 -0.04,0 -0.04,0 -0.04,0 -0.05,0 -0.04,0 -0.05,0 c -2.23,-2.2 -5.39,-2.23 -6.82,-2.23 l 0,-1.25 c 0.84,0 3.14,0 5.04,0.97 l 0,-17.77 c 0,-1.16 0,-1.61 -3.48,-1.61 l -1.31,0 0,-1.25 c 0.62,0.03 4.9,0.14 6.2,0.14 1.08,0 5.47,-0.11 6.23,-0.14 l 0,1.25 -1.32,0 c -3.49,0 -3.49,0.45 -3.49,1.61 z"
             inkscape:connector-curvature="0"
             style="fill:#000000;stroke-width:0" /><path
             id="path4422"
             d="m 524.8,394.25 0,0.02 0,0.03 0,0.01 0,0.02 0,0.01 -0.01,0.02 0,0.01 -0.01,0.02 -0.01,0.02 -0.01,0.02 -0.01,0.02 -0.02,0.03 -0.01,0.02 -0.02,0.03 -0.02,0.03 -0.03,0.03 -0.02,0.03 -0.03,0.04 -0.02,0.02 -0.01,0.02 -0.02,0.02 -0.02,0.02 -0.02,0.02 -0.02,0.03 -0.02,0.02 -0.02,0.02 -0.02,0.03 -0.03,0.02 -0.02,0.03 -0.03,0.03 -0.02,0.03 -0.03,0.03 -0.03,0.03 -0.03,0.03 -0.03,0.03 -0.03,0.03 -0.04,0.04 -0.03,0.03 -0.04,0.04 -0.03,0.03 -0.04,0.04 -0.04,0.04 c -6.22,6.28 -7.81,15.69 -7.81,23.31 0,8.67 1.89,17.35 8.01,23.56 0.64,0.61 0.64,0.71 0.64,0.86 0,0.35 -0.18,0.49 -0.48,0.49 -0.5,0 -4.98,-3.38 -7.92,-9.7 -2.55,-5.49 -3.14,-11.02 -3.14,-15.21 0,-3.89 0.54,-9.9 3.28,-15.54 2.98,-6.13 7.28,-9.36 7.78,-9.36 0.3,0 0.48,0.14 0.48,0.5 z"
             inkscape:connector-curvature="0"
             style="fill:#000000;stroke-width:0" /><path
             id="path4424"
             d="m 553,426.32 -0.01,0.02 0,0.02 -0.01,0.01 -0.01,0.02 -0.01,0.02 0,0.02 -0.01,0.03 -0.01,0.02 -0.01,0.02 -0.01,0.02 -0.01,0.03 -0.01,0.02 -0.03,0.05 -0.02,0.06 -0.02,0.05 -0.02,0.05 -0.01,0.02 -0.01,0.03 0,0.02 -0.01,0.02 -0.01,0.03 0,0.02 -0.01,0.02 -0.01,0.02 0,0.02 0,0.02 0,0.01 0,0.02 c 0,0.04 0.89,0.75 1.45,1.14 l 8.72,6.73 c 4.67,3.44 6.62,3.63 8.11,3.78 0.4,0.05 0.9,0.1 0.9,1 0,0.19 -0.15,0.55 -0.54,0.55 -1.11,0 -2.35,-0.16 -3.55,-0.16 -1.8,0 -3.74,0.16 -5.53,0.16 -0.34,0 -0.94,0 -0.94,-1 0,-0.34 0.25,-0.5 0.6,-0.55 1.09,-0.09 1.54,-0.34 1.54,-1.04 0,-0.89 -1.5,-2.05 -1.79,-2.3 l -19.44,-14.94 4,15.99 c 0.44,1.79 0.54,2.29 4.17,2.29 1.25,0 1.7,0 1.7,1 0,0.44 -0.4,0.55 -0.7,0.55 -1.39,0 -4.98,-0.16 -6.38,-0.16 -1.43,0 -4.98,0.16 -6.42,0.16 -0.36,0 -1,0 -1,-0.95 0,-0.6 0.45,-0.6 1.44,-0.6 0.66,0 1.55,-0.04 2.14,-0.09 0.8,-0.11 1.11,-0.25 1.11,-0.8 0,-0.2 -0.06,-0.36 -0.2,-0.95 l -6.67,-26.75 c -0.5,-1.95 -0.62,-2.34 -4.55,-2.34 -0.85,0 -1.39,0 -1.39,-0.96 0,-0.59 0.59,-0.59 0.75,-0.59 1.39,0 4.94,0.16 6.32,0.16 1.05,0 2.15,-0.07 3.19,-0.07 1.1,0 2.19,-0.09 3.24,-0.09 0.36,0 1,0 1,1 0,0.55 -0.46,0.55 -1.39,0.55 -1.85,0 -3.24,0 -3.24,0.89 0,0.36 0.3,1.45 0.44,2.2 0.7,2.58 1.34,5.22 2,7.81 l 7.42,5.78 5.78,-13.4 c 0.6,-1.35 0.6,-1.44 0.6,-1.74 0,-1.5 -2.14,-1.54 -2.6,-1.54 -0.54,0 -1.09,0 -1.09,-1 0,-0.55 0.59,-0.55 0.7,-0.55 1.99,0 4.08,0.16 6.08,0.16 1.09,0 3.78,-0.16 4.87,-0.16 0.25,0 0.91,0 0.91,1 0,0.55 -0.56,0.55 -1,0.55 -2.04,0.04 -2.69,0.5 -3.44,2.23 z"
             inkscape:connector-curvature="0"
             style="fill:#000000;stroke-width:0" /><path
             id="path4426"
             d="m 587.99,418.65 0,0.37 -0.01,0.39 -0.01,0.39 -0.01,0.41 -0.04,0.84 -0.06,0.88 -0.08,0.92 -0.11,0.95 -0.13,0.97 -0.17,1.01 -0.19,1.02 -0.23,1.03 -0.27,1.05 -0.31,1.06 -0.35,1.07 -0.39,1.07 -0.21,0.53 -0.23,0.53 -0.23,0.53 -0.25,0.53 c -2.99,6.12 -7.27,9.36 -7.77,9.36 -0.29,0 -0.5,-0.19 -0.5,-0.49 0,-0.15 0,-0.25 0.94,-1.15 4.89,-4.92 7.73,-12.85 7.73,-23.27 0,-8.51 -1.84,-17.28 -8.03,-23.56 -0.64,-0.59 -0.64,-0.7 -0.64,-0.84 0,-0.3 0.21,-0.5 0.5,-0.5 0.5,0 4.97,3.39 7.92,9.71 2.54,5.47 3.13,11 3.13,15.19 z"
             inkscape:connector-curvature="0"
             style="fill:#000000;stroke-width:0" /><path
             id="path4428"
             d="m 623.45,420.04 -9.96,9.92 c -0.61,0.6 -0.7,0.71 -1.11,0.71 -0.48,0 -0.98,-0.46 -0.98,-1 0,-0.36 0.09,-0.46 0.64,-1 l 9.97,-10.02 -9.97,-10.01 c -0.55,-0.55 -0.64,-0.64 -0.64,-1 0,-0.55 0.5,-0.99 0.98,-0.99 0.41,0 0.5,0.1 1.11,0.69 l 9.91,9.92 10.31,-10.31 c 0.11,-0.05 0.45,-0.3 0.75,-0.3 0.59,0 1,0.44 1,0.99 0,0.11 0,0.31 -0.16,0.56 -0.04,0.09 -7.96,7.92 -10.45,10.45 l 9.11,9.13 c 0.25,0.29 1,0.93 1.25,1.23 0.05,0.11 0.25,0.3 0.25,0.66 0,0.54 -0.41,1 -1,1 -0.39,0 -0.59,-0.21 -1.14,-0.75 z"
             inkscape:connector-curvature="0"
             style="fill:#000000;stroke-width:0" /><path
             id="path4430"
             d="m 666.92,421.54 0.01,0 0.01,0 0.01,0 0.02,0 0.01,0 0.02,0 0.03,0 0.04,0 0.04,0 0.04,0 0.05,0 0.05,0 0.05,0 0.05,0 0.06,0 0.11,0 0.11,0 0.11,-0.01 0.06,0 0.05,0 0.05,0 0.05,0 0.05,0 0.04,-0.01 0.04,0 0.04,0 0.04,-0.01 0.01,0 0.02,0 0.01,0 0.01,0 0.01,0 0.01,-0.01 0.01,0 0.01,0 0.01,0 0,0 1.71,0 c 10.1,0 13.75,4.73 13.75,9.46 0,7.07 -6.38,9.36 -12.82,9.36 l -14.55,0 c -0.88,0 -1.68,0 -1.68,-0.89 0,-0.84 0.95,-0.84 1.34,-0.84 2.59,0 2.8,-0.41 2.8,-2.84 l 0,-24.97 1.73,-0.1 0,25.16 c 0,0.66 0,1.84 -0.39,2.75 l 5.67,0 c -0.64,-0.8 -0.64,-1.8 -0.64,-2.55 l 1.74,-0.15 c 0,1 0,2.7 3,2.7 3.58,0 5.23,-1.36 5.23,-7.58 l 1.74,0 c 0,2.64 -0.25,5.28 -1.55,7.13 2.75,-0.66 6.63,-2.14 6.63,-7.18 0,-3.48 -2.24,-6.03 -6.82,-7.17 l 0,0 c 1.6,2.08 1.74,5.22 1.74,7.22 l -1.74,0 c 0,-7.12 -2.64,-7.72 -5.73,-7.72 l -2.5,0 0,12.6 -1.74,0.15 0,-25.36 c 0,-0.5 0,-1.84 0.39,-2.73 l -5.42,0 c 0.39,0.89 0.39,2.09 0.39,2.73 l -1.73,0.1 c 0,-2.44 -0.21,-2.83 -2.75,-2.83 -0.5,0 -1.39,0 -1.39,-0.86 0,-0.89 0.8,-0.89 1.68,-0.89 l 13.37,0 c 0.88,0 1.63,0 1.63,0.89 0,0.86 -0.84,0.86 -1.38,0.86 -2.85,0 -3.05,0.39 -3.05,2.83 z"
             inkscape:connector-curvature="0"
             style="fill:#000000;stroke-width:0" /><path
             id="path4432"
             d="m 702.34,409.87 0,0.71 -0.02,0.68 -0.03,0.66 -0.04,0.64 -0.06,0.62 -0.07,0.6 -0.1,0.57 -0.1,0.56 -0.13,0.55 -0.15,0.53 -0.17,0.51 -0.19,0.5 -0.21,0.49 -0.24,0.48 -0.26,0.47 -0.14,0.23 -0.15,0.23 c -1.08,1.61 -3.23,3 -6.03,3 l 0,-0.98 c 1.89,0 3.7,-1.14 4.33,-3.17 0.56,-1.88 0.59,-4.39 0.59,-7.43 0,-2.57 0,-5.15 -0.45,-7.34 -0.7,-3.17 -3.06,-3.94 -4.47,-3.94 l 0,0 c -1.59,0 -3.72,0.94 -4.42,3.8 -0.49,2.05 -0.49,4.91 -0.49,7.48 0,2.55 0,5.21 0.52,7.11 0.73,2.75 2.97,3.49 4.39,3.49 l 0,0.98 c -8.08,0 -8.08,-9.51 -8.08,-12.03 0,-2.5 0,-11.81 8.08,-11.81 8.09,0 8.09,9.31 8.09,11.81 z"
             inkscape:connector-curvature="0"
             style="fill:#000000;stroke-width:0" /><path
             id="path4434"
             d="m 723.16,394.25 0,0.02 0,0.03 0,0.01 0,0.02 0,0.01 -0.01,0.02 0,0.01 -0.01,0.02 -0.01,0.02 -0.01,0.02 -0.01,0.02 -0.02,0.03 -0.01,0.02 -0.02,0.03 -0.02,0.03 -0.03,0.03 -0.02,0.03 -0.03,0.04 -0.02,0.02 -0.01,0.02 -0.02,0.02 -0.02,0.02 -0.02,0.02 -0.02,0.03 -0.02,0.02 -0.02,0.02 -0.02,0.03 -0.03,0.02 -0.02,0.03 -0.03,0.03 -0.03,0.03 -0.02,0.03 -0.03,0.03 -0.03,0.03 -0.03,0.03 -0.03,0.03 -0.04,0.04 -0.03,0.03 -0.04,0.04 -0.03,0.03 -0.04,0.04 -0.04,0.04 c -6.22,6.28 -7.81,15.69 -7.81,23.31 0,8.67 1.89,17.35 8.01,23.56 0.64,0.61 0.64,0.71 0.64,0.86 0,0.35 -0.18,0.49 -0.48,0.49 -0.5,0 -4.98,-3.38 -7.92,-9.7 -2.55,-5.49 -3.14,-11.02 -3.14,-15.21 0,-3.89 0.54,-9.9 3.28,-15.54 2.98,-6.13 7.28,-9.36 7.78,-9.36 0.3,0 0.48,0.14 0.48,0.5 z"
             inkscape:connector-curvature="0"
             style="fill:#000000;stroke-width:0" /><path
             id="path4436"
             d="m 741.09,422.39 4.83,0 c 3.75,0 4.14,-0.8 4.14,-2.24 0,-0.36 0,-0.95 -0.34,-2.44 -0.12,-0.25 -0.16,-0.45 -0.16,-0.56 0,-0.39 0.29,-0.59 0.59,-0.59 0.5,0 0.5,0.15 0.75,1.05 l 2.75,10.81 c 0.14,0.54 0.14,0.65 0.14,0.79 0,0.1 -0.09,0.55 -0.59,0.55 -0.5,0 -0.55,-0.25 -0.75,-1.05 -1.05,-3.87 -2.19,-4.78 -6.42,-4.78 l -4.53,0 3.18,12.66 c 0.44,1.75 0.5,1.94 2.69,1.94 l 6.58,0 c 6.12,0 7.27,-1.64 7.27,-5.47 0,-1.16 0,-1.35 -0.15,-2.7 -0.1,-0.65 -0.1,-0.74 -0.1,-0.9 0,-0.25 0.15,-0.59 0.6,-0.59 0.55,0 0.6,0.3 0.69,1.25 l 1,8.61 c 0.16,1.34 -0.09,1.34 -1.34,1.34 l -24.41,0 c -1,0 -1.5,0 -1.5,-1 0,-0.54 0.46,-0.54 1.39,-0.54 1.85,0 3.24,0 3.24,-0.89 0,-0.21 0,-0.3 -0.25,-1.21 l -6.57,-26.34 c -0.5,-1.95 -0.6,-2.34 -4.54,-2.34 -0.85,0 -1.39,0 -1.39,-0.96 0,-0.59 0.59,-0.59 0.75,-0.59 1.43,0 5.12,0.16 6.58,0.16 1.63,0 5.78,-0.16 7.42,-0.16 0.45,0 1.04,0 1.04,0.95 0,0.39 -0.29,0.49 -0.29,0.55 -0.16,0.05 -0.25,0.05 -1.39,0.05 -1.11,0 -1.36,0 -2.6,0.09 -1.45,0.16 -1.59,0.36 -1.59,1 0,0.09 0,0.41 0.19,1.14 z"
             inkscape:connector-curvature="0"
             style="fill:#000000;stroke-width:0" /><path
             id="path4438"
             d="m 779.39,418.65 0,0.37 -0.01,0.39 -0.01,0.39 -0.01,0.41 -0.04,0.84 -0.06,0.88 -0.08,0.92 -0.11,0.95 -0.13,0.97 -0.17,1.01 -0.19,1.02 -0.23,1.03 -0.27,1.05 -0.31,1.06 -0.35,1.07 -0.39,1.07 -0.21,0.53 -0.23,0.53 -0.23,0.53 -0.26,0.53 c -2.98,6.12 -7.26,9.36 -7.76,9.36 -0.3,0 -0.5,-0.19 -0.5,-0.49 0,-0.15 0,-0.25 0.94,-1.15 4.89,-4.92 7.73,-12.85 7.73,-23.27 0,-8.51 -1.84,-17.28 -8.03,-23.56 -0.64,-0.59 -0.64,-0.7 -0.64,-0.84 0,-0.3 0.2,-0.5 0.5,-0.5 0.5,0 4.97,3.39 7.92,9.71 2.53,5.47 3.13,11 3.13,15.19 z"
             inkscape:connector-curvature="0"
             style="fill:#000000;stroke-width:0" /></g></g></g></g></svg>