<?xml version="1.0" encoding="UTF-8" standalone="no"?>
<svg
   xmlns:dc="http://purl.org/dc/elements/1.1/"
   xmlns:cc="http://creativecommons.org/ns#"
   xmlns:rdf="http://www.w3.org/1999/02/22-rdf-syntax-ns#"
   xmlns:svg="http://www.w3.org/2000/svg"
   xmlns="http://www.w3.org/2000/svg"
   version="1.1"
   id="svg2"
   viewBox="0 0 744.09448819 1052.3622047"
   height="297mm"
   width="210mm">
  <defs
     id="defs4" />
  <metadata
     id="metadata7">
    <rdf:RDF>
      <cc:Work
         rdf:about="">
        <dc:format>image/svg+xml</dc:format>
        <dc:type
           rdf:resource="http://purl.org/dc/dcmitype/StillImage" />
        <dc:title></dc:title>
      </cc:Work>
    </rdf:RDF>
  </metadata>
  <g
     style="display:inline"
     id="layer1">
    <path
       d="m 128.01672,155.15023 a 7.8286824,2.7779195 0 0 1 0.2192,3.84758 7.8286824,2.7779195 0 0 1 -10.82546,0.23322 7.8286824,2.7779195 0 0 1 -1.09423,-3.82873 7.8286824,2.7779195 0 0 1 10.73701,-0.54269"
       id="path4146"
       style="fill:none;fill-opacity:1;stroke:#000000;stroke-opacity:0" />
    <path
       d="m 181.88618,190.88192 a 72.225906,35.102802 0 0 1 2.02234,48.61942 72.225906,35.102802 0 0 1 -99.873601,2.94704 72.225906,35.102802 0 0 1 -10.095154,-48.3812 72.225906,35.102802 0 0 1 99.057605,-6.85772"
       id="path4156"
       style="fill:none;fill-opacity:1;stroke:#000000;stroke-opacity:0" />
    <path
       style="display:inline;fill:#a02c2c;fill-rule:evenodd;stroke:none;stroke-width:1px;stroke-linecap:butt;stroke-linejoin:miter;stroke-opacity:1"
       d="M 127.27922,327.07268 320.21836,240.19956 467.70063,344.24527 388.90873,468.49403 219.2031,441.21991 Z"
       id="path4185" />
  </g>
  <g
     style="display:inline"
     id="layer2">
    <path
       id="path4136"
       d="M 127.27922,327.07268 320.21836,240.19956 467.70063,344.24527 388.90873,468.49403 219.2031,441.21991 Z"
       style="fill:none;fill-rule:evenodd;stroke:#000000;stroke-width:1px;stroke-linecap:butt;stroke-linejoin:miter;stroke-opacity:1" />
    <path
       id="path4138"
       d="m 309.10668,361.41786 10.10152,-121.2183 1.01016,-1.01015 1.01015,1.01015"
       style="fill:none;fill-rule:evenodd;stroke:#000000;stroke-width:1px;stroke-linecap:butt;stroke-linejoin:miter;stroke-opacity:1" />
    <path
       id="path4140"
       d="m 219.2031,440.20976 89.3985,-80.30713 79.80205,108.08633"
       style="fill:none;fill-rule:evenodd;stroke:#000000;stroke-width:1px;stroke-linecap:butt;stroke-linejoin:miter;stroke-opacity:1" />
    <path
       id="path4144"
       d="m 127.27922,327.07268 182.83761,33.84011 157.07872,-17.1726 -0.50507,1.01016"
       style="fill:none;fill-rule:evenodd;stroke:#000000;stroke-width:1px;stroke-linecap:butt;stroke-linejoin:miter;stroke-opacity:1" />
    <path
       d="m 106.52033,208.35655 a 7.0710678,6.8185296 0 0 1 0.19799,9.44406 7.0710678,6.8185296 0 0 1 -9.777832,0.57245 7.0710678,6.8185296 0 0 1 -0.988337,-9.39779 7.0710678,6.8185296 0 0 1 9.697949,-1.33208"
       id="path4148"
       style="fill:none;fill-opacity:1;stroke:#000000;stroke-opacity:0" />
    <path
       d="m 127.97863,220.23328 a 13.131983,12.879445 0 0 1 0.3677,17.83878 13.131983,12.879445 0 0 1 -18.15884,1.08129 13.131983,12.879445 0 0 1 -1.83548,-17.75138 13.131983,12.879445 0 0 1 18.01047,-2.51614"
       id="path4150"
       style="fill:none;fill-opacity:1;stroke:#000000;stroke-opacity:0" />
    <path
       d="m 408.13753,217.59586 a 5.0507627,7.323606 0 0 1 0.14142,10.14362 5.0507627,7.323606 0 0 1 -6.98417,0.61485 5.0507627,7.323606 0 0 1 -0.70595,-10.09392 5.0507627,7.323606 0 0 1 6.9271,-1.43075"
       id="path4165"
       style="fill:none;fill-opacity:1;stroke:#000000;stroke-opacity:0" />
    <path
       d="m 320.87538,238.53107 a 2.715373,2.715373 0 0 1 0.076,3.76095 2.715373,2.715373 0 0 1 -3.7548,0.22796 2.715373,2.715373 0 0 1 -0.37953,-3.74252 2.715373,2.715373 0 0 1 3.72412,-0.53048"
       id="path4173"
       style="fill:#000000;fill-opacity:1;stroke:#000000;stroke-width:0.11084875;stroke-opacity:0" />
    <path
       style="fill:#000000;fill-opacity:1;stroke:#000000;stroke-width:0.11084875;stroke-opacity:0"
       id="path4175"
       d="m 468.35765,341.56664 a 2.715373,2.715373 0 0 1 0.076,3.76094 2.715373,2.715373 0 0 1 -3.7548,0.22797 2.715373,2.715373 0 0 1 -0.37954,-3.74252 2.715373,2.715373 0 0 1 3.72413,-0.53048" />
    <path
       d="m 310.26878,359.24431 a 2.715373,2.715373 0 0 1 0.076,3.76095 2.715373,2.715373 0 0 1 -3.7548,0.22797 2.715373,2.715373 0 0 1 -0.37953,-3.74253 2.715373,2.715373 0 0 1 3.72412,-0.53047"
       id="path4177"
       style="fill:#000000;fill-opacity:1;stroke:#000000;stroke-width:0.11084875;stroke-opacity:0" />
    <path
       style="fill:#000000;fill-opacity:1;stroke:#000000;stroke-width:0.11084875;stroke-opacity:0"
       id="path4179"
       d="m 389.56575,465.81541 a 2.715373,2.715373 0 0 1 0.076,3.76095 2.715373,2.715373 0 0 1 -3.7548,0.22797 2.715373,2.715373 0 0 1 -0.37954,-3.74252 2.715373,2.715373 0 0 1 3.72413,-0.53048" />
    <path
       d="m 221.88043,439.04637 a 2.715373,2.715373 0 0 1 0.076,3.76095 2.715373,2.715373 0 0 1 -3.7548,0.22797 2.715373,2.715373 0 0 1 -0.37953,-3.74252 2.715373,2.715373 0 0 1 3.72412,-0.53048"
       id="path4181"
       style="fill:#000000;fill-opacity:1;stroke:#000000;stroke-width:0.11084875;stroke-opacity:0" />
    <path
       style="fill:#000000;fill-opacity:1;stroke:#000000;stroke-width:0.11084875;stroke-opacity:0"
       id="path4183"
       d="m 129.95654,324.39406 a 2.715373,2.715373 0 0 1 0.076,3.76095 2.715373,2.715373 0 0 1 -3.7548,0.22797 2.715373,2.715373 0 0 1 -0.37953,-3.74253 2.715373,2.715373 0 0 1 3.72412,-0.53047" />
  </g>
</svg>
