<?xml version="1.0" encoding="UTF-8" standalone="no"?>
<!-- Created with Inkscape (http://www.inkscape.org/) -->

<svg
   xmlns:dc="http://purl.org/dc/elements/1.1/"
   xmlns:cc="http://creativecommons.org/ns#"
   xmlns:rdf="http://www.w3.org/1999/02/22-rdf-syntax-ns#"
   xmlns:svg="http://www.w3.org/2000/svg"
   xmlns="http://www.w3.org/2000/svg"
   xmlns:sodipodi="http://sodipodi.sourceforge.net/DTD/sodipodi-0.dtd"
   xmlns:inkscape="http://www.inkscape.org/namespaces/inkscape"
   width="210mm"
   height="297mm"
   viewBox="0 0 744.09448819 1052.3622047"
   id="svg2"
   version="1.1"
   inkscape:version="0.91 r13725"
   sodipodi:docname="patch_alg_2_bis.svg">
  <sodipodi:namedview
     id="base"
     pagecolor="#ffffff"
     bordercolor="#666666"
     borderopacity="1.0"
     inkscape:pageopacity="0.0"
     inkscape:pageshadow="2"
     inkscape:zoom="2.8"
     inkscape:cx="292.66755"
     inkscape:cy="707.24154"
     inkscape:document-units="px"
     inkscape:current-layer="layer1"
     showgrid="false"
     inkscape:window-width="1863"
     inkscape:window-height="1059"
     inkscape:window-x="57"
     inkscape:window-y="21"
     inkscape:window-maximized="1"
     inkscape:snap-midpoints="false" />
  <defs
     id="defs4" />
  <metadata
     id="metadata7">
    <rdf:RDF>
      <cc:Work
         rdf:about="">
        <dc:format>image/svg+xml</dc:format>
        <dc:type
           rdf:resource="http://purl.org/dc/dcmitype/StillImage" />
        <dc:title></dc:title>
      </cc:Work>
    </rdf:RDF>
  </metadata>
  <g
     inkscape:groupmode="layer"
     id="layer2"
     inkscape:label="origine"
     style="display:inline">
    <path
       style="fill:none;fill-rule:evenodd;stroke:#000000;stroke-width:1px;stroke-linecap:butt;stroke-linejoin:miter;stroke-opacity:1"
       d="M 127.27922,327.07268 320.21836,240.19956 467.70063,344.24527 388.90873,468.49403 219.2031,441.21991 Z"
       id="path4136"
       inkscape:connector-curvature="0" />
    <path
       style="fill:none;fill-rule:evenodd;stroke:#000000;stroke-width:1px;stroke-linecap:butt;stroke-linejoin:miter;stroke-opacity:1"
       d="m 309.10668,361.41786 10.10152,-121.2183 1.01016,-1.01015 1.01015,1.01015"
       id="path4138"
       inkscape:connector-curvature="0" />
    <path
       style="fill:none;fill-rule:evenodd;stroke:#010000;stroke-width:1px;stroke-linecap:butt;stroke-linejoin:miter;stroke-opacity:1"
       d="m 219.2031,440.20976 89.3985,-80.30713 79.80205,108.08633"
       id="path4140"
       inkscape:connector-curvature="0" />
    <path
       style="fill:none;fill-rule:evenodd;stroke:#000000;stroke-width:1px;stroke-linecap:butt;stroke-linejoin:miter;stroke-opacity:1"
       d="m 127.27922,327.07268 182.83761,33.84011 157.07872,-17.1726 -0.50507,1.01016"
       id="path4144"
       inkscape:connector-curvature="0" />
    <path
       style="fill:none;fill-opacity:1;stroke:#000000;stroke-opacity:0"
       id="path4148"
       sodipodi:type="arc"
       sodipodi:cx="101.52033"
       sodipodi:cy="213.17798"
       sodipodi:rx="7.0710678"
       sodipodi:ry="6.8185296"
       sodipodi:start="5.4977871"
       sodipodi:end="5.3360824"
       sodipodi:open="true"
       d="m 106.52033,208.35655 a 7.0710678,6.8185296 0 0 1 0.19799,9.44406 7.0710678,6.8185296 0 0 1 -9.777832,0.57245 7.0710678,6.8185296 0 0 1 -0.988337,-9.39779 7.0710678,6.8185296 0 0 1 9.697949,-1.33208" />
    <path
       style="fill:none;fill-opacity:1;stroke:#000000;stroke-opacity:0"
       id="path4150"
       sodipodi:type="arc"
       sodipodi:cx="118.69292"
       sodipodi:cy="229.34042"
       sodipodi:rx="13.131983"
       sodipodi:ry="12.879445"
       sodipodi:start="5.4977871"
       sodipodi:end="5.3360824"
       sodipodi:open="true"
       d="m 127.97863,220.23328 a 13.131983,12.879445 0 0 1 0.3677,17.83878 13.131983,12.879445 0 0 1 -18.15884,1.08129 13.131983,12.879445 0 0 1 -1.83548,-17.75138 13.131983,12.879445 0 0 1 18.01047,-2.51614" />
    <path
       style="fill:none;fill-opacity:1;stroke:#000000;stroke-opacity:0"
       id="path4165"
       sodipodi:type="arc"
       sodipodi:cx="404.5661"
       sodipodi:cy="222.77443"
       sodipodi:rx="5.0507627"
       sodipodi:ry="7.323606"
       sodipodi:start="5.4977871"
       sodipodi:end="5.3360824"
       sodipodi:open="true"
       d="m 408.13753,217.59586 a 5.0507627,7.323606 0 0 1 0.14142,10.14362 5.0507627,7.323606 0 0 1 -6.98417,0.61485 5.0507627,7.323606 0 0 1 -0.70595,-10.09392 5.0507627,7.323606 0 0 1 6.9271,-1.43075" />
    <g
       id="g3756"
       transform="matrix(0.44513761,0,0,0.44513761,136.10819,331.14032)">
      <g
         word-spacing="normal"
         letter-spacing="normal"
         font-size-adjust="none"
         font-stretch="normal"
         font-weight="normal"
         font-variant="normal"
         font-style="normal"
         stroke-miterlimit="10.433"
         xml:space="preserve"
         transform="matrix(1.0629921,0,0,-1.0629921,-186.02362,789.27165)"
         id="g3758"
         style="font-style:normal;font-variant:normal;font-weight:normal;font-stretch:normal;letter-spacing:normal;word-spacing:normal;text-anchor:start;fill:none;fill-opacity:1;fill-rule:evenodd;stroke:#000000;stroke-linecap:butt;stroke-linejoin:miter;stroke-miterlimit:10.43299961;stroke-dasharray:none;stroke-dashoffset:0;stroke-opacity:1"><path
           id="path3760"
           d="m 482.47,436.59 0.04,0.15 0.04,0.14 0.03,0.14 0.04,0.13 0.03,0.12 0.04,0.12 0.04,0.11 0.04,0.11 0.04,0.1 0.04,0.09 0.05,0.09 0.05,0.08 0.06,0.08 0.06,0.07 0.07,0.07 0.08,0.06 0.08,0.06 0.09,0.05 0.09,0.05 0.11,0.04 0.11,0.04 0.13,0.04 0.13,0.03 0.07,0.01 0.08,0.02 0.07,0.01 0.08,0.01 0.08,0.01 0.09,0.01 0.09,0.01 0.09,0.01 0.09,0.01 0.1,0 0.1,0.01 0.11,0 0.1,0.01 0.11,0 0.12,0 0.12,0 0.12,0 0.13,0 c 0.79,0 1.34,0 1.34,0.96 0,0.43 -0.3,0.59 -0.69,0.59 -1.25,0 -4.28,-0.16 -5.53,-0.16 -1.64,0 -5.69,0.16 -7.33,0.16 -0.45,0 -1.04,0 -1.04,-1 0,-0.55 0.4,-0.55 1.7,-0.55 1.14,0 1.64,0 2.88,-0.09 1.2,-0.16 1.54,-0.31 1.54,-1 0,-0.3 -0.09,-0.66 -0.19,-1.05 l -5.73,-22.87 c -1.2,-4.83 -4.58,-7.47 -7.17,-7.47 -1.3,0 -3.94,0.5 -4.74,3.09 0.14,-0.04 0.5,-0.04 0.6,-0.04 1.94,0 3.23,1.68 3.23,3.18 0,1.6 -1.34,2.08 -2.19,2.08 -0.89,0 -3.34,-0.59 -3.34,-3.98 0,-3.08 2.64,-5.42 6.58,-5.42 4.59,0 9.76,3.28 11.01,8.21 z"
           inkscape:connector-curvature="0"
           style="fill:#000000;stroke-width:0" /><path
           id="path3762"
           d="m 536.07,422.5 0.14,0 0.14,0 0.15,0 0.07,0.01 0.07,0 0.08,0.01 0.07,0.01 0.07,0.01 0.07,0.01 0.07,0.01 0.06,0.02 0.07,0.02 0.06,0.02 0.06,0.02 0.06,0.03 0.05,0.03 0.06,0.04 0.05,0.03 0.04,0.05 0.05,0.04 0.04,0.05 0.02,0.03 0.01,0.03 0.02,0.02 0.02,0.03 0.01,0.03 0.01,0.04 0.01,0.03 0.02,0.04 0.01,0.03 0,0.04 0.01,0.04 0.01,0.04 0,0.04 0.01,0.04 0,0.04 0,0.05 c 0,1 -0.96,1 -1.64,1 l -29.85,0 c -0.7,0 -1.64,0 -1.64,-1 0,-0.98 0.94,-0.98 1.69,-0.98 z"
           inkscape:connector-curvature="0"
           style="fill:#000000;stroke-width:0" /><path
           id="path3764"
           d="m 536.12,412.82 0.06,0 0.07,0 0.14,0.01 0.13,0 0.07,0 0.07,0.01 0.07,0.01 0.07,0 0.07,0.01 0.07,0.02 0.07,0.01 0.06,0.02 0.06,0.02 0.07,0.02 0.06,0.02 0.05,0.03 0.06,0.03 0.05,0.04 0.05,0.04 0.05,0.04 0.04,0.05 0.02,0.02 0.02,0.03 0.02,0.02 0.01,0.03 0.02,0.03 0.02,0.03 0.01,0.03 0.01,0.03 0.01,0.04 0.02,0.03 0.01,0.04 0,0.04 0.01,0.04 0.01,0.04 0,0.04 0.01,0.04 0,0.05 0,0.04 c 0,1 -0.96,1 -1.69,1 l -29.75,0 c -0.75,0 -1.69,0 -1.69,-1 0,-1 0.94,-1 1.64,-1 z"
           inkscape:connector-curvature="0"
           style="fill:#000000;stroke-width:0" /><path
           id="path3766"
           d="m 560.72,410.04 5.28,5.13 c 7.77,6.87 10.77,9.56 10.77,14.54 0,5.69 -4.49,9.68 -10.56,9.68 -5.64,0 -9.33,-4.6 -9.33,-9.03 0,-2.79 2.5,-2.79 2.64,-2.79 0.86,0 2.59,0.6 2.59,2.64 0,1.3 -0.89,2.6 -2.64,2.6 -0.39,0 -0.5,0 -0.64,-0.05 1.14,3.24 3.83,5.08 6.72,5.08 4.53,0 6.69,-4.05 6.69,-8.13 0,-3.98 -2.5,-7.92 -5.24,-11.01 l -9.56,-10.66 c -0.56,-0.54 -0.56,-0.64 -0.56,-1.84 l 18.48,0 1.41,8.67 -1.25,0 c -0.25,-1.5 -0.59,-3.69 -1.09,-4.44 -0.36,-0.39 -3.65,-0.39 -4.74,-0.39 z"
           inkscape:connector-curvature="0"
           style="fill:#000000;stroke-width:0" /></g>    </g>
  </g>
  <g
     inkscape:groupmode="layer"
     id="layer1"
     inkscape:label="patch_refined_ext"
     style="display:inline">
    <path
       style="fill:#b7b7c8;fill-opacity:1;fill-rule:evenodd;stroke:#000000;stroke-width:1px;stroke-linecap:butt;stroke-linejoin:miter;stroke-opacity:1"
       d="M 388.57143,469.14792 467.5,344.14792 319.64286,239.8622 308.92857,360.21935 Z"
       id="path4234"
       inkscape:connector-curvature="0" />
    <path
       style="fill:none;fill-rule:evenodd;stroke:#000000;stroke-width:1px;stroke-linecap:butt;stroke-linejoin:miter;stroke-opacity:1"
       d="m 308.92857,359.50506 c 158.57143,-15 158.57143,-15 158.57143,-15"
       id="path4238"
       inkscape:connector-curvature="0" />
    <path
       style="opacity:0.98999999;fill:#ff0000;fill-opacity:1;stroke:none;stroke-opacity:0"
       id="path4244"
       sodipodi:type="arc"
       sodipodi:cx="467.32141"
       sodipodi:cy="343.80045"
       sodipodi:rx="6.25"
       sodipodi:ry="6.0810809"
       sodipodi:start="5.4977871"
       sodipodi:end="5.3360824"
       sodipodi:open="true"
       d="m 471.74083,339.50047 a 6.25,6.0810809 0 0 1 0.175,8.42265 6.25,6.0810809 0 0 1 -8.64247,0.51054 6.25,6.0810809 0 0 1 -0.87357,-8.38139 6.25,6.0810809 0 0 1 8.57185,-1.188" />
    <path
       d="m 325.31227,235.21474 a 6.25,6.0810809 0 0 1 0.175,8.42265 6.25,6.0810809 0 0 1 -8.64247,0.51053 6.25,6.0810809 0 0 1 -0.87357,-8.38138 6.25,6.0810809 0 0 1 8.57186,-1.18801"
       sodipodi:open="true"
       sodipodi:end="5.3360824"
       sodipodi:start="5.4977871"
       sodipodi:ry="6.0810809"
       sodipodi:rx="6.25"
       sodipodi:cy="239.51471"
       sodipodi:cx="320.89285"
       sodipodi:type="arc"
       id="path4246"
       style="opacity:0.98999999;fill:#000000;fill-opacity:1;stroke:none;stroke-opacity:0" />
    <path
       d="m 313.88368,355.21474 a 6.25,6.0810809 0 0 1 0.175,8.42265 6.25,6.0810809 0 0 1 -8.64246,0.51053 6.25,6.0810809 0 0 1 -0.87358,-8.38138 6.25,6.0810809 0 0 1 8.57186,-1.18801"
       sodipodi:open="true"
       sodipodi:end="5.3360824"
       sodipodi:start="5.4977871"
       sodipodi:ry="6.0810809"
       sodipodi:rx="6.25"
       sodipodi:cy="359.51471"
       sodipodi:cx="309.46426"
       sodipodi:type="arc"
       id="path4248"
       style="opacity:0.98999999;fill:#000000;fill-opacity:1;stroke:none;stroke-opacity:0" />
    <path
       d="m 391.38368,463.07188 a 6.25,6.0810809 0 0 1 0.175,8.42265 6.25,6.0810809 0 0 1 -8.64246,0.51054 6.25,6.0810809 0 0 1 -0.87358,-8.38139 6.25,6.0810809 0 0 1 8.57186,-1.188"
       sodipodi:open="true"
       sodipodi:end="5.3360824"
       sodipodi:start="5.4977871"
       sodipodi:ry="6.0810809"
       sodipodi:rx="6.25"
       sodipodi:cy="467.37186"
       sodipodi:cx="386.96426"
       sodipodi:type="arc"
       id="path4250"
       style="opacity:0.98999999;fill:#000000;fill-opacity:1;stroke:none;stroke-opacity:0" />
  </g>
  <g
     inkscape:groupmode="layer"
     id="layer4"
     inkscape:label="raff bleu"
     style="display:inline">
    <path
       style="display:inline;fill:none;fill-rule:evenodd;stroke:#0000ff;stroke-width:1;stroke-linecap:butt;stroke-linejoin:miter;stroke-miterlimit:4;stroke-dasharray:none;stroke-dashoffset:0;stroke-opacity:1"
       d="m 218.69802,343.99274 5.05077,-60.35662 90.40865,17.17259 79.80205,-8.5863 -5.3033,60.10408 39.64849,54.04316 -79.80205,7.57615 -44.44671,40.91117 -40.15357,-54.80078 -90.66119,-15.9099 45.45686,-40.15355 95.45942,-43.18403 74.49875,51.51778 -40.15356,61.61931 -84.60028,-13.88961 z"
       id="path4284"
       inkscape:connector-curvature="0" />
    <g
       transform="matrix(0.5575354,0,0,0.5575354,266.76205,144.98719)"
       id="g3605">
      <g
         style="font-style:normal;font-variant:normal;font-weight:normal;font-stretch:normal;letter-spacing:normal;word-spacing:normal;text-anchor:start;fill:none;fill-opacity:1;fill-rule:evenodd;stroke:#000000;stroke-linecap:butt;stroke-linejoin:miter;stroke-miterlimit:10.43299961;stroke-dasharray:none;stroke-dashoffset:0;stroke-opacity:1"
         id="g3607"
         transform="matrix(1.0629921,0,0,-1.0629921,-186.02362,789.27165)"
         xml:space="preserve"
         stroke-miterlimit="10.433"
         font-style="normal"
         font-variant="normal"
         font-weight="normal"
         font-stretch="normal"
         font-size-adjust="none"
         letter-spacing="normal"
         word-spacing="normal"><path
           style="fill:#000000;stroke-width:0"
           inkscape:connector-curvature="0"
           d="m 474.16,410.04 0,-0.3 0.01,-0.31 0.01,-0.16 0.01,-0.16 0.02,-0.16 0.03,-0.16 0.04,-0.16 0.04,-0.16 0.05,-0.16 0.06,-0.16 0.08,-0.16 0.08,-0.15 0.1,-0.15 0.12,-0.15 0.13,-0.14 0.14,-0.14 0.16,-0.13 0.09,-0.06 0.09,-0.06 0.1,-0.06 0.1,-0.06 0.11,-0.06 0.11,-0.05 0.12,-0.05 0.12,-0.05 0.13,-0.05 0.13,-0.05 0.14,-0.04 0.15,-0.04 0.15,-0.04 0.15,-0.04 0.17,-0.03 0.17,-0.03 0.17,-0.03 0.18,-0.03 0.19,-0.02 0.2,-0.02 0.2,-0.02 0.21,-0.01 0.22,-0.02 0.22,0 0.23,-0.01 0.24,0 2.39,0 c 1,0 1.6,0 1.6,1.2 0,1.14 -0.64,1.14 -1.3,1.14 -3.03,0.05 -3.03,0.71 -3.03,1.85 l 0,10.7 c 0,4.44 -3.55,7.67 -10.97,7.67 -2.83,0 -8.91,-0.19 -8.91,-4.58 0,-2.18 1.74,-3.14 3.08,-3.14 1.55,0 3.14,1.05 3.14,3.14 0,1.5 -0.94,2.35 -1.09,2.44 1.39,0.3 2.98,0.36 3.59,0.36 3.74,0 5.47,-2.09 5.47,-5.89 l 0,-1.69 0,-1.54 0,-4.74 c 0,-4.78 -4.58,-5.42 -5.83,-5.42 -2.53,0 -4.53,1.73 -4.53,3.94 0,5.37 7.88,6.07 10.36,6.22 l 0,0 0,1.54 c -3.53,-0.15 -16.19,-0.59 -16.19,-7.83 0,-4.78 6.18,-5.67 9.61,-5.67 4,0 6.33,2.05 7.44,4.14 z"
           id="path3609" /></g>    </g>
    <path
       style="fill:none;fill-rule:evenodd;stroke:#000000;stroke-width:1px;stroke-linecap:butt;stroke-linejoin:miter;stroke-opacity:1"
       d="M 320.35714,239.50506 Z"
       id="path4193"
       inkscape:connector-curvature="0" />
  </g>
</svg>
